G04 Layer_Color=8388736*
%FSLAX44Y44*%
%MOMM*%
G71*
G01*
G75*
%ADD72C,2.0320*%
%ADD107R,0.8128X0.8032*%
%ADD108O,2.1532X0.5532*%
%ADD109R,0.8032X0.7032*%
%ADD110R,1.0032X1.1032*%
%ADD111R,0.7532X0.7032*%
G04:AMPARAMS|DCode=112|XSize=0.8128mm|YSize=0.8032mm|CornerRadius=0mm|HoleSize=0mm|Usage=FLASHONLY|Rotation=135.000|XOffset=0mm|YOffset=0mm|HoleType=Round|Shape=Rectangle|*
%AMROTATEDRECTD112*
4,1,4,0.5713,-0.0034,0.0034,-0.5713,-0.5713,0.0034,-0.0034,0.5713,0.5713,-0.0034,0.0*
%
%ADD112ROTATEDRECTD112*%

%ADD113O,2.5400X0.8128*%
%ADD114R,1.1032X1.0032*%
G04:AMPARAMS|DCode=115|XSize=0.4532mm|YSize=1.1532mm|CornerRadius=0mm|HoleSize=0mm|Usage=FLASHONLY|Rotation=225.000|XOffset=0mm|YOffset=0mm|HoleType=Round|Shape=Round|*
%AMOVALD115*
21,1,0.7000,0.4532,0.0000,0.0000,315.0*
1,1,0.4532,-0.2475,0.2475*
1,1,0.4532,0.2475,-0.2475*
%
%ADD115OVALD115*%

%ADD116R,0.8032X0.8128*%
G04:AMPARAMS|DCode=117|XSize=0.7032mm|YSize=0.8032mm|CornerRadius=0mm|HoleSize=0mm|Usage=FLASHONLY|Rotation=315.000|XOffset=0mm|YOffset=0mm|HoleType=Round|Shape=Rectangle|*
%AMROTATEDRECTD117*
4,1,4,-0.5326,-0.0354,0.0354,0.5326,0.5326,0.0354,-0.0354,-0.5326,-0.5326,-0.0354,0.0*
%
%ADD117ROTATEDRECTD117*%

%ADD118O,1.6032X0.5032*%
%ADD119O,1.6032X0.7032*%
%ADD120O,1.1032X0.6032*%
%ADD121R,1.6032X1.8032*%
%ADD122R,1.6032X2.8032*%
%ADD123R,2.8032X1.6032*%
G04:AMPARAMS|DCode=124|XSize=2.8032mm|YSize=1.6032mm|CornerRadius=0mm|HoleSize=0mm|Usage=FLASHONLY|Rotation=45.000|XOffset=0mm|YOffset=0mm|HoleType=Round|Shape=Rectangle|*
%AMROTATEDRECTD124*
4,1,4,-0.4243,-1.5579,-1.5579,-0.4243,0.4243,1.5579,1.5579,0.4243,-0.4243,-1.5579,0.0*
%
%ADD124ROTATEDRECTD124*%

G04:AMPARAMS|DCode=125|XSize=2.8032mm|YSize=1.6032mm|CornerRadius=0mm|HoleSize=0mm|Usage=FLASHONLY|Rotation=315.000|XOffset=0mm|YOffset=0mm|HoleType=Round|Shape=Rectangle|*
%AMROTATEDRECTD125*
4,1,4,-1.5579,0.4243,-0.4243,1.5579,1.5579,-0.4243,0.4243,-1.5579,-1.5579,0.4243,0.0*
%
%ADD125ROTATEDRECTD125*%

G04:AMPARAMS|DCode=126|XSize=0.6032mm|YSize=0.7532mm|CornerRadius=0mm|HoleSize=0mm|Usage=FLASHONLY|Rotation=135.000|XOffset=0mm|YOffset=0mm|HoleType=Round|Shape=Rectangle|*
%AMROTATEDRECTD126*
4,1,4,0.4796,0.0530,-0.0530,-0.4796,-0.4796,-0.0530,0.0530,0.4796,0.4796,0.0530,0.0*
%
%ADD126ROTATEDRECTD126*%

G04:AMPARAMS|DCode=127|XSize=0.8128mm|YSize=0.8032mm|CornerRadius=0mm|HoleSize=0mm|Usage=FLASHONLY|Rotation=45.000|XOffset=0mm|YOffset=0mm|HoleType=Round|Shape=Rectangle|*
%AMROTATEDRECTD127*
4,1,4,-0.0034,-0.5713,-0.5713,-0.0034,0.0034,0.5713,0.5713,0.0034,-0.0034,-0.5713,0.0*
%
%ADD127ROTATEDRECTD127*%

G04:AMPARAMS|DCode=128|XSize=3.5032mm|YSize=2.2032mm|CornerRadius=0.4016mm|HoleSize=0mm|Usage=FLASHONLY|Rotation=90.000|XOffset=0mm|YOffset=0mm|HoleType=Round|Shape=RoundedRectangle|*
%AMROUNDEDRECTD128*
21,1,3.5032,1.4000,0,0,90.0*
21,1,2.7000,2.2032,0,0,90.0*
1,1,0.8032,0.7000,1.3500*
1,1,0.8032,0.7000,-1.3500*
1,1,0.8032,-0.7000,-1.3500*
1,1,0.8032,-0.7000,1.3500*
%
%ADD128ROUNDEDRECTD128*%
%ADD129O,2.2032X1.2032*%
G04:AMPARAMS|DCode=130|XSize=0.7032mm|YSize=0.8032mm|CornerRadius=0mm|HoleSize=0mm|Usage=FLASHONLY|Rotation=225.000|XOffset=0mm|YOffset=0mm|HoleType=Round|Shape=Rectangle|*
%AMROTATEDRECTD130*
4,1,4,-0.0354,0.5326,0.5326,-0.0354,0.0354,-0.5326,-0.5326,0.0354,-0.0354,0.5326,0.0*
%
%ADD130ROTATEDRECTD130*%

%ADD131R,1.2192X1.0032*%
%ADD132R,0.7032X0.8032*%
%ADD133O,0.6232X1.9832*%
%ADD134R,1.1832X3.9032*%
%ADD135R,4.4432X4.0132*%
%ADD136O,1.0032X0.5032*%
%ADD137O,0.5032X1.0032*%
G04:AMPARAMS|DCode=138|XSize=1.1938mm|YSize=0.762mm|CornerRadius=0.1575mm|HoleSize=0mm|Usage=FLASHONLY|Rotation=90.000|XOffset=0mm|YOffset=0mm|HoleType=Round|Shape=RoundedRectangle|*
%AMROUNDEDRECTD138*
21,1,1.1938,0.4470,0,0,90.0*
21,1,0.8788,0.7620,0,0,90.0*
1,1,0.3150,0.2235,0.4394*
1,1,0.3150,0.2235,-0.4394*
1,1,0.3150,-0.2235,-0.4394*
1,1,0.3150,-0.2235,0.4394*
%
%ADD138ROUNDEDRECTD138*%
%ADD139O,1.9832X0.6232*%
%ADD140R,4.9032X1.3832*%
%ADD141O,2.4032X0.8032*%
%ADD142O,3.2512X1.4732*%
%ADD143R,3.2512X1.4732*%
%ADD144C,0.7032*%
%ADD145O,0.8532X0.4532*%
%ADD146O,0.9532X0.4532*%
%ADD147O,0.4532X1.0532*%
%ADD148C,0.4032*%
%ADD149R,0.4532X1.1032*%
%ADD150R,2.7032X1.9032*%
%ADD151O,2.2032X0.8032*%
%ADD152O,2.2032X0.9144*%
%ADD153R,2.2032X5.7032*%
%ADD154O,0.5532X2.1532*%
%ADD155R,2.4032X1.6032*%
%ADD156O,1.8532X0.7032*%
%ADD157O,0.7032X1.8532*%
%ADD158R,1.4032X1.4032*%
G04:AMPARAMS|DCode=159|XSize=0.5032mm|YSize=1.0032mm|CornerRadius=0mm|HoleSize=0mm|Usage=FLASHONLY|Rotation=135.000|XOffset=0mm|YOffset=0mm|HoleType=Round|Shape=Round|*
%AMOVALD159*
21,1,0.5000,0.5032,0.0000,0.0000,225.0*
1,1,0.5032,0.1768,0.1768*
1,1,0.5032,-0.1768,-0.1768*
%
%ADD159OVALD159*%

G04:AMPARAMS|DCode=160|XSize=0.5032mm|YSize=1.0032mm|CornerRadius=0mm|HoleSize=0mm|Usage=FLASHONLY|Rotation=45.000|XOffset=0mm|YOffset=0mm|HoleType=Round|Shape=Round|*
%AMOVALD160*
21,1,0.5000,0.5032,0.0000,0.0000,135.0*
1,1,0.5032,0.1768,-0.1768*
1,1,0.5032,-0.1768,0.1768*
%
%ADD160OVALD160*%

G04:AMPARAMS|DCode=161|XSize=0.4532mm|YSize=1.1532mm|CornerRadius=0mm|HoleSize=0mm|Usage=FLASHONLY|Rotation=315.000|XOffset=0mm|YOffset=0mm|HoleType=Round|Shape=Round|*
%AMOVALD161*
21,1,0.7000,0.4532,0.0000,0.0000,45.0*
1,1,0.4532,-0.2475,-0.2475*
1,1,0.4532,0.2475,0.2475*
%
%ADD161OVALD161*%

%ADD162C,0.3532*%
G04:AMPARAMS|DCode=163|XSize=7.3532mm|YSize=7.3282mm|CornerRadius=0mm|HoleSize=0mm|Usage=FLASHONLY|Rotation=45.000|XOffset=0mm|YOffset=0mm|HoleType=Round|Shape=Rectangle|*
%AMROTATEDRECTD163*
4,1,4,-0.0088,-5.1907,-5.1907,-0.0088,0.0088,5.1907,5.1907,0.0088,-0.0088,-5.1907,0.0*
%
%ADD163ROTATEDRECTD163*%

%ADD164C,2.2352*%
%ADD165C,2.7032*%
%ADD166R,4.4032X3.2032*%
%ADD167C,2.2032*%
%ADD168C,3.0032*%
%ADD169C,6.2032*%
%ADD170C,0.9032*%
%ADD171R,2.9032X2.7032*%
%ADD172C,1.7032*%
%ADD173C,1.8032*%
%ADD174R,2.6032X3.3032*%
%ADD175C,2.4892*%
%ADD176C,3.4544*%
%ADD177C,1.8542*%
%ADD178O,1.7272X2.2352*%
%ADD179O,2.2352X1.7272*%
G36*
X1356169Y862971D02*
X1356300Y862944D01*
X1356426Y862902D01*
X1356546Y862843D01*
X1356656Y862769D01*
X1356756Y862681D01*
X1394763Y824674D01*
X1394774Y824661D01*
X1394787Y824650D01*
X1394818Y824611D01*
X1394851Y824574D01*
X1394860Y824560D01*
X1394871Y824547D01*
X1394897Y824504D01*
X1394925Y824463D01*
X1394933Y824448D01*
X1394941Y824434D01*
X1394962Y824389D01*
X1394984Y824344D01*
X1394989Y824328D01*
X1394996Y824313D01*
X1395011Y824265D01*
X1395027Y824218D01*
X1395030Y824201D01*
X1395035Y824185D01*
X1395043Y824136D01*
X1395053Y824087D01*
X1395054Y824070D01*
X1395057Y824054D01*
X1395058Y824004D01*
X1395062Y823954D01*
X1395060Y823937D01*
X1395061Y823921D01*
X1395056Y823872D01*
X1395053Y823821D01*
X1395050Y823805D01*
X1395048Y823788D01*
X1395037Y823740D01*
X1395027Y823690D01*
X1395022Y823675D01*
X1395018Y823659D01*
X1395000Y823612D01*
X1394984Y823564D01*
X1394977Y823549D01*
X1394971Y823534D01*
X1394947Y823490D01*
X1394925Y823445D01*
X1394916Y823431D01*
X1394908Y823416D01*
X1394879Y823375D01*
X1394851Y823334D01*
X1394840Y823322D01*
X1394830Y823308D01*
X1394709Y823160D01*
X1394583Y822856D01*
Y822578D01*
X1394689Y822321D01*
X1394885Y822125D01*
X1395142Y822018D01*
X1395420D01*
X1395724Y822144D01*
X1395872Y822266D01*
X1395886Y822276D01*
X1395898Y822287D01*
X1395941Y822315D01*
X1395981Y822344D01*
X1395995Y822351D01*
X1396009Y822361D01*
X1396055Y822384D01*
X1396098Y822407D01*
X1396113Y822412D01*
X1396129Y822420D01*
X1396177Y822436D01*
X1396223Y822454D01*
X1396239Y822457D01*
X1396255Y822463D01*
X1396305Y822473D01*
X1396353Y822484D01*
X1396369Y822485D01*
X1396385Y822489D01*
X1396437Y822492D01*
X1396485Y822497D01*
X1396501Y822496D01*
X1396518Y822497D01*
X1396570Y822494D01*
X1396618Y822492D01*
X1396634Y822490D01*
X1396651Y822489D01*
X1396702Y822479D01*
X1396750Y822471D01*
X1396765Y822466D01*
X1396782Y822463D01*
X1396830Y822446D01*
X1396877Y822432D01*
X1396892Y822425D01*
X1396908Y822420D01*
X1396954Y822397D01*
X1396998Y822377D01*
X1397012Y822368D01*
X1397027Y822361D01*
X1397070Y822333D01*
X1397111Y822307D01*
X1397124Y822296D01*
X1397138Y822287D01*
X1397177Y822253D01*
X1397214Y822222D01*
X1397225Y822210D01*
X1397238Y822199D01*
X1399360Y820078D01*
X1399447Y819978D01*
X1399521Y819867D01*
X1399580Y819747D01*
X1399623Y819621D01*
X1399649Y819491D01*
X1399658Y819358D01*
X1399649Y819225D01*
X1399623Y819094D01*
X1399580Y818968D01*
X1399521Y818849D01*
X1399447Y818738D01*
X1399360Y818638D01*
X1356933Y776211D01*
X1356833Y776124D01*
X1356722Y776050D01*
X1356603Y775991D01*
X1356477Y775948D01*
X1356346Y775922D01*
X1356213Y775913D01*
X1356080Y775922D01*
X1355950Y775948D01*
X1355824Y775991D01*
X1355704Y776050D01*
X1355593Y776124D01*
X1355493Y776211D01*
X1312890Y818815D01*
X1312802Y818915D01*
X1312728Y819025D01*
X1312669Y819145D01*
X1312626Y819271D01*
X1312601Y819402D01*
X1312592Y819535D01*
X1312601Y819668D01*
X1312626Y819798D01*
X1312669Y819924D01*
X1312728Y820044D01*
X1312802Y820154D01*
X1312890Y820255D01*
X1355316Y862681D01*
X1355417Y862769D01*
X1355527Y862843D01*
X1355647Y862902D01*
X1355773Y862944D01*
X1355903Y862971D01*
X1356036Y862979D01*
X1356169Y862971D01*
D02*
G37*
G36*
X976133Y773009D02*
X976264Y772983D01*
X976390Y772941D01*
X976509Y772882D01*
X976620Y772808D01*
X976720Y772720D01*
X976808Y772620D01*
X976882Y772509D01*
X976941Y772390D01*
X976983Y772264D01*
X977010Y772133D01*
X977018Y772000D01*
Y764000D01*
X977010Y763867D01*
X976983Y763736D01*
X976941Y763610D01*
X976882Y763491D01*
X976808Y763380D01*
X976720Y763280D01*
X975220Y761780D01*
X975120Y761692D01*
X975009Y761618D01*
X974890Y761559D01*
X974763Y761517D01*
X974633Y761491D01*
X974500Y761482D01*
X973500D01*
X973367Y761491D01*
X973236Y761517D01*
X973110Y761559D01*
X972991Y761618D01*
X972880Y761692D01*
X972780Y761780D01*
X972692Y761880D01*
X972618Y761991D01*
X972559Y762110D01*
X972516Y762236D01*
X972490Y762367D01*
X972482Y762500D01*
Y772000D01*
X972490Y772133D01*
X972516Y772264D01*
X972559Y772390D01*
X972618Y772509D01*
X972692Y772620D01*
X972780Y772720D01*
X972880Y772808D01*
X972991Y772882D01*
X973110Y772941D01*
X973236Y772983D01*
X973367Y773009D01*
X973500Y773018D01*
X976000D01*
X976133Y773009D01*
D02*
G37*
G36*
X1784383Y780509D02*
X1784514Y780483D01*
X1784640Y780441D01*
X1784759Y780382D01*
X1784870Y780308D01*
X1784970Y780220D01*
X1785058Y780120D01*
X1785132Y780009D01*
X1785191Y779890D01*
X1785233Y779763D01*
X1785260Y779633D01*
X1785268Y779500D01*
Y726500D01*
X1785267Y726483D01*
X1785268Y726467D01*
X1785263Y726417D01*
X1785260Y726367D01*
X1785256Y726351D01*
X1785255Y726334D01*
X1785243Y726285D01*
X1785233Y726236D01*
X1785228Y726221D01*
X1785224Y726205D01*
X1785207Y726158D01*
X1785191Y726110D01*
X1785183Y726095D01*
X1785177Y726080D01*
X1785154Y726036D01*
X1785132Y725991D01*
X1785123Y725977D01*
X1785115Y725962D01*
X1785085Y725922D01*
X1785058Y725880D01*
X1785047Y725868D01*
X1785037Y725854D01*
X1785003Y725818D01*
X1784970Y725780D01*
X1784957Y725769D01*
X1784946Y725757D01*
X1784908Y725725D01*
X1784870Y725692D01*
X1784856Y725683D01*
X1784843Y725672D01*
X1784800Y725646D01*
X1784759Y725618D01*
X1784744Y725611D01*
X1784730Y725602D01*
X1784684Y725581D01*
X1784640Y725559D01*
X1784624Y725554D01*
X1784609Y725547D01*
X1784561Y725533D01*
X1784514Y725517D01*
X1784497Y725513D01*
X1784481Y725508D01*
X1784432Y725500D01*
X1784383Y725490D01*
X1784366Y725489D01*
X1784350Y725487D01*
X1783915Y725444D01*
X1783160Y725131D01*
X1782619Y724590D01*
X1782326Y723883D01*
Y723117D01*
X1782619Y722410D01*
X1783160Y721869D01*
X1783915Y721556D01*
X1784350Y721513D01*
X1784366Y721511D01*
X1784383Y721509D01*
X1784432Y721500D01*
X1784481Y721492D01*
X1784497Y721487D01*
X1784514Y721484D01*
X1784561Y721467D01*
X1784609Y721453D01*
X1784624Y721446D01*
X1784640Y721441D01*
X1784684Y721419D01*
X1784730Y721398D01*
X1784744Y721389D01*
X1784759Y721382D01*
X1784801Y721354D01*
X1784843Y721328D01*
X1784856Y721317D01*
X1784870Y721308D01*
X1784907Y721275D01*
X1784946Y721243D01*
X1784957Y721231D01*
X1784970Y721220D01*
X1785003Y721182D01*
X1785037Y721146D01*
X1785047Y721132D01*
X1785058Y721120D01*
X1785086Y721078D01*
X1785115Y721038D01*
X1785123Y721023D01*
X1785132Y721009D01*
X1785154Y720964D01*
X1785177Y720920D01*
X1785183Y720905D01*
X1785191Y720890D01*
X1785207Y720842D01*
X1785224Y720796D01*
X1785228Y720779D01*
X1785233Y720763D01*
X1785243Y720714D01*
X1785255Y720666D01*
X1785256Y720649D01*
X1785260Y720633D01*
X1785263Y720583D01*
X1785268Y720533D01*
X1785267Y720517D01*
X1785268Y720500D01*
Y717500D01*
X1785260Y717367D01*
X1785233Y717236D01*
X1785191Y717110D01*
X1785132Y716991D01*
X1785058Y716880D01*
X1784970Y716780D01*
X1784870Y716692D01*
X1784759Y716618D01*
X1784640Y716559D01*
X1784514Y716516D01*
X1784383Y716490D01*
X1784250Y716482D01*
X1722250D01*
X1722117Y716490D01*
X1721987Y716516D01*
X1721860Y716559D01*
X1721741Y716618D01*
X1721630Y716692D01*
X1721530Y716780D01*
X1721442Y716880D01*
X1721368Y716991D01*
X1721309Y717110D01*
X1721266Y717236D01*
X1721241Y717367D01*
X1721232Y717500D01*
Y779500D01*
X1721241Y779633D01*
X1721266Y779763D01*
X1721309Y779890D01*
X1721368Y780009D01*
X1721442Y780120D01*
X1721530Y780220D01*
X1721630Y780308D01*
X1721741Y780382D01*
X1721860Y780441D01*
X1721987Y780483D01*
X1722117Y780509D01*
X1722250Y780518D01*
X1784250D01*
X1784383Y780509D01*
D02*
G37*
G36*
X976133Y701010D02*
X976264Y700984D01*
X976390Y700941D01*
X976509Y700882D01*
X976620Y700808D01*
X976720Y700720D01*
X976808Y700620D01*
X976882Y700509D01*
X976941Y700390D01*
X976983Y700264D01*
X977010Y700133D01*
X977018Y700000D01*
Y692000D01*
X977010Y691867D01*
X976983Y691737D01*
X976941Y691610D01*
X976882Y691491D01*
X976808Y691380D01*
X976720Y691280D01*
X975220Y689780D01*
X975120Y689692D01*
X975009Y689618D01*
X974890Y689559D01*
X974763Y689517D01*
X974633Y689491D01*
X974500Y689482D01*
X973500D01*
X973367Y689491D01*
X973236Y689517D01*
X973110Y689559D01*
X972991Y689618D01*
X972880Y689692D01*
X972780Y689780D01*
X972692Y689880D01*
X972618Y689991D01*
X972559Y690110D01*
X972516Y690237D01*
X972490Y690367D01*
X972482Y690500D01*
Y700000D01*
X972490Y700133D01*
X972516Y700264D01*
X972559Y700390D01*
X972618Y700509D01*
X972692Y700620D01*
X972780Y700720D01*
X972880Y700808D01*
X972991Y700882D01*
X973110Y700941D01*
X973236Y700984D01*
X973367Y701010D01*
X973500Y701018D01*
X976000D01*
X976133Y701010D01*
D02*
G37*
D72*
X1826800Y1410960D02*
D03*
Y1385560D02*
D03*
Y1314440D02*
D03*
Y1289040D02*
D03*
D107*
X1186000Y1526170D02*
D03*
Y1536330D02*
D03*
X1066548Y1535830D02*
D03*
Y1525670D02*
D03*
X1784000Y677420D02*
D03*
Y687580D02*
D03*
X1995000Y1054920D02*
D03*
Y1065080D02*
D03*
X857714Y1377420D02*
D03*
Y1387580D02*
D03*
X962714Y1395080D02*
D03*
Y1384920D02*
D03*
X857714Y1397420D02*
D03*
Y1407580D02*
D03*
X972714Y1384920D02*
D03*
Y1395080D02*
D03*
Y1557580D02*
D03*
Y1547420D02*
D03*
X962714D02*
D03*
Y1557580D02*
D03*
X857714Y1550080D02*
D03*
Y1539920D02*
D03*
Y1570080D02*
D03*
Y1559920D02*
D03*
X697500Y1355160D02*
D03*
Y1345000D02*
D03*
Y1305000D02*
D03*
Y1315160D02*
D03*
Y1335160D02*
D03*
Y1325000D02*
D03*
Y1500080D02*
D03*
Y1489920D02*
D03*
Y1529920D02*
D03*
Y1540080D02*
D03*
Y1520080D02*
D03*
Y1509920D02*
D03*
X1992500Y890080D02*
D03*
Y879920D02*
D03*
X990000Y1229080D02*
D03*
Y1218920D02*
D03*
D108*
X1672000Y1240000D02*
D03*
Y1245000D02*
D03*
Y1270000D02*
D03*
Y1275000D02*
D03*
Y1300000D02*
D03*
Y1305000D02*
D03*
Y1340000D02*
D03*
Y1335000D02*
D03*
Y1330000D02*
D03*
Y1325000D02*
D03*
Y1320000D02*
D03*
Y1315000D02*
D03*
Y1310000D02*
D03*
Y1295000D02*
D03*
Y1290000D02*
D03*
Y1285000D02*
D03*
Y1280000D02*
D03*
Y1265000D02*
D03*
Y1260000D02*
D03*
Y1255000D02*
D03*
Y1250000D02*
D03*
Y1235000D02*
D03*
Y1230000D02*
D03*
Y1225000D02*
D03*
Y1220000D02*
D03*
Y1215000D02*
D03*
X1448000D02*
D03*
Y1220000D02*
D03*
Y1225000D02*
D03*
Y1230000D02*
D03*
Y1235000D02*
D03*
Y1240000D02*
D03*
Y1245000D02*
D03*
Y1250000D02*
D03*
Y1255000D02*
D03*
Y1260000D02*
D03*
Y1265000D02*
D03*
Y1270000D02*
D03*
Y1275000D02*
D03*
Y1280000D02*
D03*
Y1285000D02*
D03*
Y1290000D02*
D03*
Y1295000D02*
D03*
Y1300000D02*
D03*
Y1305000D02*
D03*
Y1310000D02*
D03*
Y1315000D02*
D03*
Y1320000D02*
D03*
Y1325000D02*
D03*
Y1330000D02*
D03*
Y1335000D02*
D03*
Y1340000D02*
D03*
D109*
X715000Y706000D02*
D03*
X725000D02*
D03*
X715000Y714000D02*
D03*
X725000D02*
D03*
X1684250Y763000D02*
D03*
X1674250D02*
D03*
X1684250Y755000D02*
D03*
X1674250D02*
D03*
X1820000Y738000D02*
D03*
X1830000D02*
D03*
X1674250Y739000D02*
D03*
X1684250D02*
D03*
X1674250Y747000D02*
D03*
X1684250D02*
D03*
X1702200Y677750D02*
D03*
X1712200D02*
D03*
X1702200Y685750D02*
D03*
X1712200D02*
D03*
X1830000Y720000D02*
D03*
X1820000D02*
D03*
X1802500Y615500D02*
D03*
X1812500D02*
D03*
X1802500Y623500D02*
D03*
X1812500D02*
D03*
D110*
X710000Y724000D02*
D03*
X724000D02*
D03*
X1803500Y605500D02*
D03*
X1817500D02*
D03*
D111*
X1674750Y710800D02*
D03*
Y717200D02*
D03*
X1829500Y763800D02*
D03*
X1820500D02*
D03*
X1829500Y770200D02*
D03*
X1820500D02*
D03*
X1711700Y662300D02*
D03*
X1702700D02*
D03*
X1711700Y668700D02*
D03*
X1702700D02*
D03*
X1683750Y710800D02*
D03*
Y717200D02*
D03*
Y724800D02*
D03*
X1674750D02*
D03*
X1683750Y731200D02*
D03*
X1674750D02*
D03*
D112*
X1391158Y762908D02*
D03*
X1398342Y770092D02*
D03*
X1488592Y1144592D02*
D03*
X1481408Y1137408D02*
D03*
D113*
X855484Y898156D02*
D03*
Y908316D02*
D03*
X1568716Y898156D02*
D03*
Y908316D02*
D03*
X1531124Y708164D02*
D03*
Y718324D02*
D03*
Y658126D02*
D03*
Y668286D02*
D03*
X893076Y708164D02*
D03*
Y718324D02*
D03*
Y658126D02*
D03*
Y668286D02*
D03*
X855484Y958100D02*
D03*
X893076D02*
D03*
X855484Y948194D02*
D03*
X893076D02*
D03*
X855484Y938288D02*
D03*
X893076D02*
D03*
X855484Y928128D02*
D03*
X893076D02*
D03*
X855484Y918222D02*
D03*
X893076D02*
D03*
Y908316D02*
D03*
Y898156D02*
D03*
X855484Y888250D02*
D03*
X893076D02*
D03*
X855484Y878344D02*
D03*
X893076D02*
D03*
X855484Y868184D02*
D03*
X893076D02*
D03*
X855484Y858278D02*
D03*
X893076D02*
D03*
X855484Y848118D02*
D03*
X893076D02*
D03*
X855484Y838212D02*
D03*
X893076D02*
D03*
X855484Y828306D02*
D03*
X893076D02*
D03*
X855484Y818146D02*
D03*
X893076D02*
D03*
X855484Y808240D02*
D03*
X893076D02*
D03*
X855484Y798334D02*
D03*
X893076D02*
D03*
X855484Y788174D02*
D03*
X893076D02*
D03*
X855484Y778268D02*
D03*
X893076D02*
D03*
X855484Y768108D02*
D03*
X893076D02*
D03*
X855484Y758202D02*
D03*
X893076D02*
D03*
X855484Y748296D02*
D03*
X893076D02*
D03*
X855484Y738136D02*
D03*
X893076D02*
D03*
X855484Y728230D02*
D03*
X893076D02*
D03*
X855484Y718324D02*
D03*
Y708164D02*
D03*
Y698258D02*
D03*
X893076D02*
D03*
X855484Y688352D02*
D03*
X893076D02*
D03*
X855484Y678192D02*
D03*
X893076D02*
D03*
X855484Y668286D02*
D03*
Y658126D02*
D03*
Y648220D02*
D03*
X893076D02*
D03*
X1531124Y958100D02*
D03*
X1568716D02*
D03*
X1531124Y948194D02*
D03*
X1568716D02*
D03*
X1531124Y938288D02*
D03*
X1568716D02*
D03*
X1531124Y928128D02*
D03*
X1568716D02*
D03*
X1531124Y918222D02*
D03*
X1568716D02*
D03*
X1531124Y908316D02*
D03*
Y898156D02*
D03*
Y888250D02*
D03*
X1568716D02*
D03*
X1531124Y878344D02*
D03*
X1568716D02*
D03*
X1531124Y868184D02*
D03*
X1568716D02*
D03*
X1531124Y858278D02*
D03*
X1568716D02*
D03*
X1531124Y848118D02*
D03*
X1568716D02*
D03*
X1531124Y838212D02*
D03*
X1568716D02*
D03*
X1531124Y828306D02*
D03*
X1568716D02*
D03*
X1531124Y818146D02*
D03*
X1568716D02*
D03*
X1531124Y808240D02*
D03*
X1568716D02*
D03*
X1531124Y798334D02*
D03*
X1568716D02*
D03*
X1531124Y788174D02*
D03*
X1568716D02*
D03*
X1531124Y778268D02*
D03*
X1568716D02*
D03*
X1531124Y768108D02*
D03*
X1568716D02*
D03*
X1531124Y758202D02*
D03*
X1568716D02*
D03*
X1531124Y748296D02*
D03*
X1568716D02*
D03*
X1531124Y738136D02*
D03*
X1568716D02*
D03*
X1531124Y728230D02*
D03*
X1568716D02*
D03*
Y718324D02*
D03*
Y708164D02*
D03*
X1531124Y698258D02*
D03*
X1568716D02*
D03*
X1531124Y688352D02*
D03*
X1568716D02*
D03*
X1531124Y678192D02*
D03*
X1568716D02*
D03*
Y668286D02*
D03*
Y658126D02*
D03*
X1531124Y648220D02*
D03*
X1568716D02*
D03*
D114*
X1452999Y704500D02*
D03*
Y690500D02*
D03*
X1437999Y704500D02*
D03*
Y690500D02*
D03*
X1420499Y724500D02*
D03*
Y710500D02*
D03*
X1405499Y724500D02*
D03*
Y710500D02*
D03*
X1380249Y704500D02*
D03*
Y690500D02*
D03*
X1365249Y704500D02*
D03*
Y690500D02*
D03*
X1347749Y710500D02*
D03*
Y724500D02*
D03*
X1332749D02*
D03*
Y710500D02*
D03*
D115*
X1364168Y758370D02*
D03*
X1367704Y761905D02*
D03*
X1420737Y814938D02*
D03*
X1417201Y811403D02*
D03*
X1413666Y807867D02*
D03*
X1410130Y804332D02*
D03*
X1406595Y800796D02*
D03*
X1403059Y797261D02*
D03*
X1399523Y793725D02*
D03*
X1395988Y790190D02*
D03*
X1392452Y786654D02*
D03*
X1388917Y783119D02*
D03*
X1385381Y779583D02*
D03*
X1381846Y776048D02*
D03*
X1378310Y772512D02*
D03*
X1374775Y768977D02*
D03*
X1371239Y765441D02*
D03*
X1360633Y754834D02*
D03*
X1291690Y823777D02*
D03*
X1302296Y834384D02*
D03*
X1305832Y837919D02*
D03*
X1309367Y841455D02*
D03*
X1312903Y844990D02*
D03*
X1316438Y848526D02*
D03*
X1319974Y852061D02*
D03*
X1330581Y862668D02*
D03*
X1334116Y866204D02*
D03*
X1337652Y869739D02*
D03*
X1341187Y873275D02*
D03*
X1344723Y876810D02*
D03*
X1348258Y880346D02*
D03*
X1351794Y883881D02*
D03*
X1327045Y859133D02*
D03*
X1323510Y855597D02*
D03*
X1298761Y830848D02*
D03*
X1295225Y827313D02*
D03*
D116*
X938670Y677500D02*
D03*
Y687500D02*
D03*
X1830080Y729000D02*
D03*
X1819920D02*
D03*
Y747000D02*
D03*
X1830080D02*
D03*
X948830Y759500D02*
D03*
X938670D02*
D03*
Y749500D02*
D03*
X948830D02*
D03*
Y687500D02*
D03*
Y677500D02*
D03*
D117*
X1034965Y797964D02*
D03*
X1042036Y805035D02*
D03*
X1040965Y791964D02*
D03*
X1048036Y799035D02*
D03*
X1063536Y782535D02*
D03*
X1056464Y775464D02*
D03*
X1069536Y776535D02*
D03*
X1062464Y769464D02*
D03*
X1090464Y742465D02*
D03*
X1097535Y749536D02*
D03*
X1084464Y748465D02*
D03*
X1091535Y755536D02*
D03*
D118*
X1735500Y622500D02*
D03*
Y617500D02*
D03*
Y612500D02*
D03*
Y607500D02*
D03*
Y602500D02*
D03*
X1784500Y622500D02*
D03*
Y617500D02*
D03*
Y612500D02*
D03*
Y607500D02*
D03*
Y602500D02*
D03*
X792000Y707000D02*
D03*
Y712000D02*
D03*
Y717000D02*
D03*
Y722000D02*
D03*
Y727000D02*
D03*
X743000Y707000D02*
D03*
Y712000D02*
D03*
Y717000D02*
D03*
Y722000D02*
D03*
Y727000D02*
D03*
D119*
X1633500Y622250D02*
D03*
Y615750D02*
D03*
Y609250D02*
D03*
Y602750D02*
D03*
X1681500Y622250D02*
D03*
Y615750D02*
D03*
Y609250D02*
D03*
Y602750D02*
D03*
X743500Y659250D02*
D03*
Y652750D02*
D03*
Y646250D02*
D03*
Y639750D02*
D03*
X791500Y659250D02*
D03*
Y652750D02*
D03*
Y646250D02*
D03*
Y639750D02*
D03*
D120*
X1980250Y1066500D02*
D03*
Y1060000D02*
D03*
Y1053500D02*
D03*
X1957750D02*
D03*
Y1060000D02*
D03*
Y1066500D02*
D03*
D121*
X1508500Y1647500D02*
D03*
Y1567500D02*
D03*
X1463500Y1647500D02*
D03*
Y1567500D02*
D03*
D122*
X1716030Y1185000D02*
D03*
X1743970D02*
D03*
X1743970Y1120000D02*
D03*
X1716030D02*
D03*
X1638970Y1412500D02*
D03*
X1611030D02*
D03*
X1745240Y1152500D02*
D03*
X1714760D02*
D03*
D123*
X1492500Y1431030D02*
D03*
Y1458970D02*
D03*
X1660000Y926470D02*
D03*
Y898530D02*
D03*
X754000Y948030D02*
D03*
Y975970D02*
D03*
X788000Y786780D02*
D03*
Y814720D02*
D03*
X1660000Y818530D02*
D03*
Y846470D02*
D03*
X723000Y786780D02*
D03*
Y814720D02*
D03*
X1216213Y713626D02*
D03*
Y742582D02*
D03*
X978713Y870590D02*
D03*
Y841634D02*
D03*
X1877500Y869732D02*
D03*
Y840776D02*
D03*
X1291213Y742328D02*
D03*
Y714388D02*
D03*
X1337750Y1431030D02*
D03*
Y1458970D02*
D03*
X1415250Y1431030D02*
D03*
Y1458970D02*
D03*
X1336750Y1516030D02*
D03*
Y1543970D02*
D03*
X1525000Y1429760D02*
D03*
Y1460240D02*
D03*
X1667999Y1114760D02*
D03*
Y1145240D02*
D03*
X1635499Y1114760D02*
D03*
Y1145240D02*
D03*
X1627500Y927740D02*
D03*
Y897260D02*
D03*
X786500Y946760D02*
D03*
Y977240D02*
D03*
X1627500Y817260D02*
D03*
Y847740D02*
D03*
X755500Y785510D02*
D03*
Y815990D02*
D03*
X1183713Y743598D02*
D03*
Y713118D02*
D03*
X946213Y840618D02*
D03*
Y871098D02*
D03*
X1910000Y839760D02*
D03*
Y870240D02*
D03*
X1258713Y743598D02*
D03*
Y713118D02*
D03*
X1370250Y1429760D02*
D03*
Y1460240D02*
D03*
X1447750Y1429760D02*
D03*
Y1460240D02*
D03*
X1369250Y1514760D02*
D03*
Y1545240D02*
D03*
X1440000Y898530D02*
D03*
Y926470D02*
D03*
X1472500Y897260D02*
D03*
Y927740D02*
D03*
D124*
X1141092Y1115980D02*
D03*
X1121335Y1135736D02*
D03*
X1119490Y1092581D02*
D03*
X1097937Y1114134D02*
D03*
D125*
X1316335Y1115980D02*
D03*
X1336091Y1135736D02*
D03*
X1337937Y1092581D02*
D03*
X1359489Y1114134D02*
D03*
D126*
X1454950Y1143914D02*
D03*
X1448586Y1137550D02*
D03*
X1458485Y1140379D02*
D03*
X1452121Y1134015D02*
D03*
X1451414Y1147450D02*
D03*
X1445050Y1141086D02*
D03*
X1447879Y1150985D02*
D03*
X1441515Y1144621D02*
D03*
X1417550Y1168586D02*
D03*
X1423914Y1174950D02*
D03*
X1414015Y1172121D02*
D03*
X1420379Y1178485D02*
D03*
X1421086Y1165050D02*
D03*
X1427450Y1171414D02*
D03*
X1424621Y1161515D02*
D03*
X1430985Y1167879D02*
D03*
X1390050Y1196086D02*
D03*
X1396414Y1202450D02*
D03*
X1386515Y1199621D02*
D03*
X1392879Y1205985D02*
D03*
X1393586Y1192550D02*
D03*
X1399950Y1198914D02*
D03*
X1397121Y1189015D02*
D03*
X1403485Y1195379D02*
D03*
X1390050Y1236086D02*
D03*
X1396414Y1242450D02*
D03*
X1386515Y1239621D02*
D03*
X1392879Y1245985D02*
D03*
X1393586Y1232550D02*
D03*
X1399950Y1238914D02*
D03*
X1397121Y1229015D02*
D03*
X1403485Y1235379D02*
D03*
X1390050Y1276086D02*
D03*
X1396414Y1282450D02*
D03*
X1386515Y1279621D02*
D03*
X1392879Y1285985D02*
D03*
X1393586Y1272550D02*
D03*
X1399950Y1278914D02*
D03*
X1397121Y1269015D02*
D03*
X1403485Y1275379D02*
D03*
X1390050Y1316086D02*
D03*
X1396414Y1322450D02*
D03*
X1386515Y1319621D02*
D03*
X1392879Y1325985D02*
D03*
X1393586Y1312550D02*
D03*
X1399950Y1318914D02*
D03*
X1397121Y1309015D02*
D03*
X1403485Y1315379D02*
D03*
D127*
X1419658Y791592D02*
D03*
X1426842Y784408D02*
D03*
X1423158Y844092D02*
D03*
X1430342Y836908D02*
D03*
X1040408Y844592D02*
D03*
X1047592Y837408D02*
D03*
X1054592Y844408D02*
D03*
X1047408Y851592D02*
D03*
D128*
X1414463Y615858D02*
D03*
X1259463Y635858D02*
D03*
X1719250Y859500D02*
D03*
X952963Y950358D02*
D03*
X1136963Y635858D02*
D03*
D129*
X1478733Y593358D02*
D03*
Y608358D02*
D03*
Y623358D02*
D03*
Y638358D02*
D03*
X1323733Y613358D02*
D03*
Y628358D02*
D03*
Y643358D02*
D03*
Y658358D02*
D03*
X1783520Y882000D02*
D03*
Y867000D02*
D03*
Y852000D02*
D03*
Y837000D02*
D03*
X1017233Y972858D02*
D03*
Y957858D02*
D03*
Y942858D02*
D03*
Y927858D02*
D03*
X1201233Y658358D02*
D03*
Y643358D02*
D03*
Y628358D02*
D03*
Y613358D02*
D03*
D130*
X1425965Y797785D02*
D03*
X1433035Y790714D02*
D03*
X1033464Y837535D02*
D03*
X1040536Y830464D02*
D03*
X1129536Y740464D02*
D03*
X1122465Y747536D02*
D03*
D131*
X1012750Y688880D02*
D03*
Y704120D02*
D03*
X998750D02*
D03*
Y688880D02*
D03*
X998750Y660880D02*
D03*
Y676120D02*
D03*
X1012750D02*
D03*
Y660880D02*
D03*
X1012750Y776120D02*
D03*
Y760880D02*
D03*
X998750D02*
D03*
Y776120D02*
D03*
X998750Y748120D02*
D03*
Y732880D02*
D03*
X1012750D02*
D03*
Y748120D02*
D03*
D132*
X1947500Y880000D02*
D03*
Y890000D02*
D03*
X1793000Y687500D02*
D03*
Y677500D02*
D03*
D133*
X1106878Y1502800D02*
D03*
X1113378D02*
D03*
X1119878D02*
D03*
X1126378D02*
D03*
X1132878Y1502800D02*
D03*
X1139378D02*
D03*
X1100378Y1502800D02*
D03*
X1093878D02*
D03*
X1087378Y1502800D02*
D03*
X1080878D02*
D03*
Y1562200D02*
D03*
X1087378D02*
D03*
X1093878Y1562200D02*
D03*
X1100378D02*
D03*
X1139378Y1562200D02*
D03*
X1132878D02*
D03*
X1126378Y1562200D02*
D03*
X1119878D02*
D03*
X1113378D02*
D03*
X1106878D02*
D03*
X1226298Y1502800D02*
D03*
X1232798D02*
D03*
X1239298D02*
D03*
X1245798D02*
D03*
X1252298D02*
D03*
X1258798D02*
D03*
X1219798D02*
D03*
X1213298D02*
D03*
X1206798D02*
D03*
X1200298D02*
D03*
Y1562200D02*
D03*
X1206798D02*
D03*
X1213298D02*
D03*
X1219798D02*
D03*
X1258798D02*
D03*
X1252298D02*
D03*
X1245798D02*
D03*
X1239298D02*
D03*
X1232798D02*
D03*
X1226298D02*
D03*
D134*
X1103278Y1462500D02*
D03*
X1126978D02*
D03*
X1222698Y1462500D02*
D03*
X1246398D02*
D03*
X1103278Y1602500D02*
D03*
X1126978D02*
D03*
X1222698Y1602500D02*
D03*
X1246398D02*
D03*
D135*
X624673Y1431195D02*
D03*
X548473D02*
D03*
D136*
X1797500Y711000D02*
D03*
Y716000D02*
D03*
Y721000D02*
D03*
Y726000D02*
D03*
Y731000D02*
D03*
Y736000D02*
D03*
Y741000D02*
D03*
Y746000D02*
D03*
Y751000D02*
D03*
Y756000D02*
D03*
Y761000D02*
D03*
Y766000D02*
D03*
Y771000D02*
D03*
Y776000D02*
D03*
Y781000D02*
D03*
Y786000D02*
D03*
X1709000D02*
D03*
Y781000D02*
D03*
Y776000D02*
D03*
Y771000D02*
D03*
Y766000D02*
D03*
Y761000D02*
D03*
Y756000D02*
D03*
Y751000D02*
D03*
Y746000D02*
D03*
Y741000D02*
D03*
Y736000D02*
D03*
Y731000D02*
D03*
Y726000D02*
D03*
Y721000D02*
D03*
Y716000D02*
D03*
Y711000D02*
D03*
D137*
X1790750Y792750D02*
D03*
X1785750D02*
D03*
X1780750D02*
D03*
X1775750D02*
D03*
X1770750D02*
D03*
X1765750D02*
D03*
X1760750D02*
D03*
X1755750D02*
D03*
X1750750D02*
D03*
X1745750D02*
D03*
X1740750D02*
D03*
X1735750D02*
D03*
X1730750D02*
D03*
X1725750D02*
D03*
X1720750D02*
D03*
X1715750D02*
D03*
Y704250D02*
D03*
X1720750D02*
D03*
X1725750D02*
D03*
X1730750D02*
D03*
X1735750D02*
D03*
X1740750D02*
D03*
X1745750D02*
D03*
X1750750D02*
D03*
X1755750D02*
D03*
X1760750D02*
D03*
X1765750D02*
D03*
X1770750D02*
D03*
X1775750D02*
D03*
X1780750D02*
D03*
X1785750D02*
D03*
X1790750D02*
D03*
D138*
X1970000Y895160D02*
D03*
X1976604Y875094D02*
D03*
X1963396D02*
D03*
D139*
X780960Y1492000D02*
D03*
Y1498500D02*
D03*
Y1505000D02*
D03*
Y1511500D02*
D03*
Y1518000D02*
D03*
Y1524500D02*
D03*
Y1531000D02*
D03*
Y1537500D02*
D03*
X720000Y1492000D02*
D03*
Y1498500D02*
D03*
Y1505000D02*
D03*
Y1511500D02*
D03*
Y1518000D02*
D03*
Y1524500D02*
D03*
Y1531000D02*
D03*
Y1537500D02*
D03*
Y1352500D02*
D03*
Y1346000D02*
D03*
Y1339500D02*
D03*
Y1333000D02*
D03*
Y1326500D02*
D03*
Y1320000D02*
D03*
Y1313500D02*
D03*
Y1307000D02*
D03*
X780960Y1352500D02*
D03*
Y1346000D02*
D03*
Y1339500D02*
D03*
Y1333000D02*
D03*
Y1326500D02*
D03*
Y1320000D02*
D03*
Y1313500D02*
D03*
Y1307000D02*
D03*
D140*
X987714Y1614050D02*
D03*
Y1580950D02*
D03*
Y1451550D02*
D03*
Y1418450D02*
D03*
D141*
X881464Y1581550D02*
D03*
Y1568850D02*
D03*
Y1556150D02*
D03*
Y1543450D02*
D03*
X938964Y1581550D02*
D03*
Y1568850D02*
D03*
Y1556150D02*
D03*
Y1543450D02*
D03*
X881464Y1419050D02*
D03*
Y1406350D02*
D03*
Y1393650D02*
D03*
Y1380950D02*
D03*
X938964Y1419050D02*
D03*
Y1406350D02*
D03*
Y1393650D02*
D03*
Y1380950D02*
D03*
D142*
X1861300Y755800D02*
D03*
Y705000D02*
D03*
X1937500Y755800D02*
D03*
D143*
Y705000D02*
D03*
D144*
X1080258Y978250D02*
D03*
X1087329Y985321D02*
D03*
X1094400Y992392D02*
D03*
X1101471Y999463D02*
D03*
X1108542Y1006534D02*
D03*
X1115613Y1013605D02*
D03*
X1122684Y1020676D02*
D03*
X1129755Y1027747D02*
D03*
X1136826Y1034819D02*
D03*
X1143897Y1041890D02*
D03*
X1150968Y1048961D02*
D03*
X1158039Y1056032D02*
D03*
X1165110Y1063103D02*
D03*
X1172181Y1070174D02*
D03*
X1179252Y1077245D02*
D03*
X1186324Y1084316D02*
D03*
X1193395Y1091387D02*
D03*
X1200466Y1098458D02*
D03*
X1207537Y1105529D02*
D03*
X1214608Y1112600D02*
D03*
X1221679Y1119671D02*
D03*
X1228750Y1126742D02*
D03*
X1087329Y971179D02*
D03*
X1094400Y978250D02*
D03*
X1101471Y985321D02*
D03*
X1108542Y992392D02*
D03*
X1115613Y999463D02*
D03*
X1122684Y1006534D02*
D03*
X1129755Y1013605D02*
D03*
X1136826Y1020676D02*
D03*
X1143897Y1027747D02*
D03*
X1150968Y1034819D02*
D03*
X1158039Y1041890D02*
D03*
X1165110Y1048961D02*
D03*
X1172181Y1056032D02*
D03*
X1179252Y1063103D02*
D03*
X1186324Y1070174D02*
D03*
X1193395Y1077245D02*
D03*
X1200466Y1084316D02*
D03*
X1207537Y1091387D02*
D03*
X1214608Y1098458D02*
D03*
X1221679Y1105529D02*
D03*
X1228750Y1112600D02*
D03*
X1235821Y1119671D02*
D03*
X1094400Y964108D02*
D03*
X1101471Y971179D02*
D03*
X1108542Y978250D02*
D03*
X1115613Y985321D02*
D03*
X1122684Y992392D02*
D03*
X1129755Y999463D02*
D03*
X1136826Y1006534D02*
D03*
X1143897Y1013605D02*
D03*
X1150968Y1020676D02*
D03*
X1158039Y1027747D02*
D03*
X1165110Y1034819D02*
D03*
X1172181Y1041890D02*
D03*
X1179252Y1048961D02*
D03*
X1186324Y1056032D02*
D03*
X1193395Y1063103D02*
D03*
X1200466Y1070174D02*
D03*
X1207537Y1077245D02*
D03*
X1214608Y1084316D02*
D03*
X1221679Y1091387D02*
D03*
X1228750Y1098458D02*
D03*
X1235821Y1105529D02*
D03*
X1242892Y1112600D02*
D03*
X1101471Y957037D02*
D03*
X1108542Y964108D02*
D03*
X1115613Y971179D02*
D03*
X1122684Y978250D02*
D03*
X1129755Y985321D02*
D03*
X1136826Y992392D02*
D03*
X1143897Y999463D02*
D03*
X1150968Y1006534D02*
D03*
X1158039Y1013605D02*
D03*
X1165110Y1020676D02*
D03*
X1172181Y1027747D02*
D03*
X1179252Y1034819D02*
D03*
X1186324Y1041890D02*
D03*
X1193395Y1048961D02*
D03*
X1200466Y1056032D02*
D03*
X1207537Y1063103D02*
D03*
X1214608Y1070174D02*
D03*
X1221679Y1077245D02*
D03*
X1228750Y1084316D02*
D03*
X1235821Y1091387D02*
D03*
X1242892Y1098458D02*
D03*
X1249963Y1105529D02*
D03*
X1108542Y949966D02*
D03*
X1115613Y957037D02*
D03*
X1122684Y964108D02*
D03*
X1129755Y971179D02*
D03*
X1136826Y978250D02*
D03*
X1143897Y985321D02*
D03*
X1150968Y992392D02*
D03*
X1158039Y999463D02*
D03*
X1165110Y1006534D02*
D03*
X1172181Y1013605D02*
D03*
X1179252Y1020676D02*
D03*
X1186324Y1027747D02*
D03*
X1193395Y1034819D02*
D03*
X1200466Y1041890D02*
D03*
X1207537Y1048961D02*
D03*
X1214608Y1056032D02*
D03*
X1221679Y1063103D02*
D03*
X1228750Y1070174D02*
D03*
X1235821Y1077245D02*
D03*
X1242892Y1084316D02*
D03*
X1249963Y1091387D02*
D03*
X1257034Y1098458D02*
D03*
X1115613Y942895D02*
D03*
X1122684Y949966D02*
D03*
X1129755Y957037D02*
D03*
X1136826Y964108D02*
D03*
X1143897Y971179D02*
D03*
X1150968Y978250D02*
D03*
X1158039Y985321D02*
D03*
X1165110Y992392D02*
D03*
X1172181Y999463D02*
D03*
X1179252Y1006534D02*
D03*
X1186324Y1013605D02*
D03*
X1193395Y1020676D02*
D03*
X1200466Y1027747D02*
D03*
X1207537Y1034819D02*
D03*
X1214608Y1041890D02*
D03*
X1221679Y1048961D02*
D03*
X1228750Y1056032D02*
D03*
X1235821Y1063103D02*
D03*
X1242892Y1070174D02*
D03*
X1249963Y1077245D02*
D03*
X1257034Y1084316D02*
D03*
X1264105Y1091387D02*
D03*
X1122684Y935824D02*
D03*
X1129755Y942895D02*
D03*
X1136826Y949966D02*
D03*
X1143897Y957037D02*
D03*
X1150968Y964108D02*
D03*
X1158039Y971179D02*
D03*
X1165110Y978250D02*
D03*
X1172181Y985321D02*
D03*
X1179252Y992392D02*
D03*
X1186324Y999463D02*
D03*
X1193395Y1006534D02*
D03*
X1200466Y1013605D02*
D03*
X1207537Y1020676D02*
D03*
X1214608Y1027747D02*
D03*
X1221679Y1034819D02*
D03*
X1228750Y1041890D02*
D03*
X1235821Y1048961D02*
D03*
X1242892Y1056032D02*
D03*
X1249963Y1063103D02*
D03*
X1257034Y1070174D02*
D03*
X1264105Y1077245D02*
D03*
X1271176Y1084316D02*
D03*
X1129755Y928753D02*
D03*
X1136826Y935824D02*
D03*
X1143897Y942895D02*
D03*
X1150968Y949966D02*
D03*
X1158039Y957037D02*
D03*
X1165110Y964108D02*
D03*
X1172181Y971179D02*
D03*
X1179253Y978250D02*
D03*
X1186324Y985321D02*
D03*
X1193395Y992392D02*
D03*
X1200466Y999463D02*
D03*
X1207537Y1006534D02*
D03*
X1214608Y1013605D02*
D03*
X1221679Y1020676D02*
D03*
X1228750Y1027747D02*
D03*
X1235821Y1034819D02*
D03*
X1242892Y1041890D02*
D03*
X1249963Y1048961D02*
D03*
X1257034Y1056032D02*
D03*
X1264105Y1063103D02*
D03*
X1271176Y1070174D02*
D03*
X1278248Y1077245D02*
D03*
X1136826Y921682D02*
D03*
X1143897Y928753D02*
D03*
X1150968Y935824D02*
D03*
X1158039Y942895D02*
D03*
X1165110Y949966D02*
D03*
X1172181Y957037D02*
D03*
X1179252Y964108D02*
D03*
X1186324Y971179D02*
D03*
X1193395Y978250D02*
D03*
X1200466Y985321D02*
D03*
X1207537Y992392D02*
D03*
X1214608Y999463D02*
D03*
X1221679Y1006534D02*
D03*
X1228750Y1013605D02*
D03*
X1235821Y1020676D02*
D03*
X1242892Y1027747D02*
D03*
X1249963Y1034819D02*
D03*
X1257034Y1041890D02*
D03*
X1264105Y1048961D02*
D03*
X1271176Y1056032D02*
D03*
X1278248Y1063103D02*
D03*
X1285319Y1070174D02*
D03*
X1143897Y914610D02*
D03*
X1150968Y921682D02*
D03*
X1158039Y928753D02*
D03*
X1165110Y935824D02*
D03*
X1172181Y942895D02*
D03*
X1179252Y949966D02*
D03*
X1186324Y957037D02*
D03*
X1193395Y964108D02*
D03*
X1200466Y971179D02*
D03*
X1207537Y978250D02*
D03*
X1214608Y985321D02*
D03*
X1221679Y992392D02*
D03*
X1228750Y999463D02*
D03*
X1235821Y1006534D02*
D03*
X1242892Y1013605D02*
D03*
X1249963Y1020676D02*
D03*
X1257034Y1027747D02*
D03*
X1264105Y1034819D02*
D03*
X1271176Y1041890D02*
D03*
X1278248Y1048961D02*
D03*
X1285319Y1056032D02*
D03*
X1292390Y1063103D02*
D03*
X1150968Y907539D02*
D03*
X1158039Y914610D02*
D03*
X1165110Y921682D02*
D03*
X1172181Y928753D02*
D03*
X1179252Y935824D02*
D03*
X1186324Y942895D02*
D03*
X1193395Y949966D02*
D03*
X1200466Y957037D02*
D03*
X1207537Y964108D02*
D03*
X1214608Y971179D02*
D03*
X1221679Y978250D02*
D03*
X1228750Y985321D02*
D03*
X1235821Y992392D02*
D03*
X1242892Y999463D02*
D03*
X1249963Y1006534D02*
D03*
X1257034Y1013605D02*
D03*
X1264105Y1020676D02*
D03*
X1271176Y1027747D02*
D03*
X1278248Y1034819D02*
D03*
X1285319Y1041890D02*
D03*
X1292390Y1048961D02*
D03*
X1299461Y1056032D02*
D03*
X1158039Y900468D02*
D03*
X1165110Y907539D02*
D03*
X1172181Y914610D02*
D03*
X1179252Y921682D02*
D03*
X1186324Y928753D02*
D03*
X1193395Y935824D02*
D03*
X1200466Y942895D02*
D03*
X1207537Y949966D02*
D03*
X1214608Y957037D02*
D03*
X1221679Y964108D02*
D03*
X1228750Y971179D02*
D03*
X1235821Y978250D02*
D03*
X1242892Y985321D02*
D03*
X1249963Y992392D02*
D03*
X1257034Y999463D02*
D03*
X1264105Y1006534D02*
D03*
X1271176Y1013605D02*
D03*
X1278248Y1020676D02*
D03*
X1285319Y1027747D02*
D03*
X1292390Y1034819D02*
D03*
X1299461Y1041890D02*
D03*
X1306532Y1048961D02*
D03*
X1165110Y893397D02*
D03*
X1172181Y900468D02*
D03*
X1179252Y907539D02*
D03*
X1186324Y914610D02*
D03*
X1193395Y921682D02*
D03*
X1200466Y928753D02*
D03*
X1207537Y935824D02*
D03*
X1214608Y942895D02*
D03*
X1221679Y949966D02*
D03*
X1228750Y957037D02*
D03*
X1235821Y964108D02*
D03*
X1242892Y971179D02*
D03*
X1249963Y978250D02*
D03*
X1257034Y985321D02*
D03*
X1264105Y992392D02*
D03*
X1271176Y999463D02*
D03*
X1278248Y1006534D02*
D03*
X1285318Y1013605D02*
D03*
X1292390Y1020676D02*
D03*
X1299461Y1027747D02*
D03*
X1306532Y1034819D02*
D03*
X1313603Y1041890D02*
D03*
X1172181Y886326D02*
D03*
X1179252Y893397D02*
D03*
X1186324Y900468D02*
D03*
X1193395Y907539D02*
D03*
X1200466Y914610D02*
D03*
X1207537Y921682D02*
D03*
X1214608Y928753D02*
D03*
X1221679Y935824D02*
D03*
X1228750Y942895D02*
D03*
X1235821Y949966D02*
D03*
X1242892Y957037D02*
D03*
X1249963Y964108D02*
D03*
X1257034Y971179D02*
D03*
X1264105Y978250D02*
D03*
X1271176Y985321D02*
D03*
X1278248Y992392D02*
D03*
X1285319Y999463D02*
D03*
X1292390Y1006534D02*
D03*
X1299461Y1013605D02*
D03*
X1306532Y1020676D02*
D03*
X1313603Y1027747D02*
D03*
X1320674Y1034819D02*
D03*
X1179252Y879255D02*
D03*
X1186324Y886326D02*
D03*
X1193395Y893397D02*
D03*
X1200466Y900468D02*
D03*
X1207537Y907539D02*
D03*
X1214608Y914610D02*
D03*
X1221679Y921682D02*
D03*
X1228750Y928753D02*
D03*
X1235821Y935824D02*
D03*
X1242892Y942895D02*
D03*
X1249963Y949966D02*
D03*
X1257034Y957037D02*
D03*
X1264105Y964108D02*
D03*
X1271176Y971179D02*
D03*
X1278248Y978250D02*
D03*
X1285319Y985321D02*
D03*
X1292390Y992392D02*
D03*
X1299461Y999463D02*
D03*
X1306532Y1006534D02*
D03*
X1313603Y1013605D02*
D03*
X1320674Y1020676D02*
D03*
X1327745Y1027747D02*
D03*
X1186324Y872184D02*
D03*
X1193395Y879255D02*
D03*
X1200466Y886326D02*
D03*
X1207537Y893397D02*
D03*
X1214608Y900468D02*
D03*
X1221679Y907539D02*
D03*
X1228750Y914610D02*
D03*
X1235821Y921682D02*
D03*
X1242892Y928753D02*
D03*
X1249963Y935824D02*
D03*
X1257034Y942895D02*
D03*
X1264105Y949966D02*
D03*
X1271176Y957037D02*
D03*
X1278248Y964108D02*
D03*
X1285319Y971179D02*
D03*
X1292390Y978250D02*
D03*
X1299461Y985321D02*
D03*
X1306532Y992392D02*
D03*
X1313603Y999463D02*
D03*
X1320674Y1006534D02*
D03*
X1327745Y1013605D02*
D03*
X1334816Y1020676D02*
D03*
X1193395Y865113D02*
D03*
X1200466Y872184D02*
D03*
X1207537Y879255D02*
D03*
X1214608Y886326D02*
D03*
X1221679Y893397D02*
D03*
X1228750Y900468D02*
D03*
X1235821Y907539D02*
D03*
X1242892Y914610D02*
D03*
X1249963Y921682D02*
D03*
X1257034Y928753D02*
D03*
X1264105Y935824D02*
D03*
X1271176Y942895D02*
D03*
X1278248Y949966D02*
D03*
X1285319Y957037D02*
D03*
X1292390Y964108D02*
D03*
X1299461Y971179D02*
D03*
X1306532Y978250D02*
D03*
X1313603Y985321D02*
D03*
X1320674Y992392D02*
D03*
X1327745Y999463D02*
D03*
X1334816Y1006534D02*
D03*
X1341887Y1013605D02*
D03*
X1200466Y858042D02*
D03*
X1207537Y865113D02*
D03*
X1214608Y872184D02*
D03*
X1221679Y879255D02*
D03*
X1228750Y886326D02*
D03*
X1235821Y893397D02*
D03*
X1242892Y900468D02*
D03*
X1249963Y907539D02*
D03*
X1257034Y914610D02*
D03*
X1264105Y921682D02*
D03*
X1271176Y928753D02*
D03*
X1278248Y935824D02*
D03*
X1285318Y942895D02*
D03*
X1292390Y949966D02*
D03*
X1299461Y957037D02*
D03*
X1306532Y964108D02*
D03*
X1313603Y971179D02*
D03*
X1320674Y978250D02*
D03*
X1327745Y985321D02*
D03*
X1334816Y992392D02*
D03*
X1341887Y999463D02*
D03*
X1348958Y1006534D02*
D03*
X1207537Y850971D02*
D03*
X1214608Y858042D02*
D03*
X1221679Y865113D02*
D03*
X1228750Y872184D02*
D03*
X1235821Y879255D02*
D03*
X1242892Y886326D02*
D03*
X1249963Y893397D02*
D03*
X1257034Y900468D02*
D03*
X1264105Y907539D02*
D03*
X1271176Y914610D02*
D03*
X1278248Y921682D02*
D03*
X1285319Y928753D02*
D03*
X1292390Y935824D02*
D03*
X1299461Y942895D02*
D03*
X1306532Y949966D02*
D03*
X1313603Y957037D02*
D03*
X1320674Y964108D02*
D03*
X1327745Y971179D02*
D03*
X1334816Y978250D02*
D03*
X1341887Y985321D02*
D03*
X1348958Y992392D02*
D03*
X1356029Y999463D02*
D03*
X1214608Y843900D02*
D03*
X1221679Y850971D02*
D03*
X1228750Y858042D02*
D03*
X1235821Y865113D02*
D03*
X1242892Y872184D02*
D03*
X1249963Y879255D02*
D03*
X1257034Y886326D02*
D03*
X1264105Y893397D02*
D03*
X1271176Y900468D02*
D03*
X1278248Y907539D02*
D03*
X1285319Y914610D02*
D03*
X1292390Y921682D02*
D03*
X1299461Y928753D02*
D03*
X1306532Y935824D02*
D03*
X1313603Y942895D02*
D03*
X1320674Y949966D02*
D03*
X1327745Y957037D02*
D03*
X1334816Y964108D02*
D03*
X1341887Y971179D02*
D03*
X1348958Y978250D02*
D03*
X1356029Y985321D02*
D03*
X1363100Y992392D02*
D03*
X1221679Y836829D02*
D03*
X1228750Y843900D02*
D03*
X1235821Y850971D02*
D03*
X1242892Y858042D02*
D03*
X1264105Y879255D02*
D03*
X1271176Y886326D02*
D03*
X1278248Y893397D02*
D03*
X1285319Y900468D02*
D03*
X1292390Y907539D02*
D03*
X1299461Y914610D02*
D03*
X1306532Y921682D02*
D03*
X1313603Y928753D02*
D03*
X1320674Y935824D02*
D03*
X1327745Y942895D02*
D03*
X1334816Y949966D02*
D03*
X1341887Y957037D02*
D03*
X1348958Y964108D02*
D03*
X1356029Y971179D02*
D03*
X1363100Y978250D02*
D03*
X1370171Y985321D02*
D03*
X1228750Y829758D02*
D03*
X1235821Y836829D02*
D03*
X1242892Y843900D02*
D03*
X1249963Y850971D02*
D03*
X1271176Y872184D02*
D03*
X1278248Y879255D02*
D03*
X1285319Y886326D02*
D03*
X1292390Y893397D02*
D03*
X1299461Y900468D02*
D03*
X1306532Y907539D02*
D03*
X1313603Y914610D02*
D03*
X1320674Y921682D02*
D03*
X1327745Y928753D02*
D03*
X1334816Y935824D02*
D03*
X1341887Y942895D02*
D03*
X1348958Y949966D02*
D03*
X1356029Y957037D02*
D03*
X1363100Y964108D02*
D03*
X1370171Y971179D02*
D03*
X1377242Y978250D02*
D03*
X1257034Y858042D02*
D03*
X1249963Y865113D02*
D03*
X1257034Y872184D02*
D03*
X1264105Y865113D02*
D03*
D145*
X980000Y754500D02*
D03*
Y749500D02*
D03*
Y759500D02*
D03*
Y682500D02*
D03*
Y677500D02*
D03*
Y687500D02*
D03*
D146*
X962000Y754500D02*
D03*
Y749500D02*
D03*
Y759500D02*
D03*
Y682500D02*
D03*
Y677500D02*
D03*
Y687500D02*
D03*
D147*
X966750Y767750D02*
D03*
Y741250D02*
D03*
X974750D02*
D03*
X966750Y695750D02*
D03*
Y669250D02*
D03*
X974750D02*
D03*
D148*
Y767500D02*
D03*
Y695500D02*
D03*
D149*
X971500Y754500D02*
D03*
Y682500D02*
D03*
D150*
X930214Y1612500D02*
D03*
X890214D02*
D03*
X930214Y1450000D02*
D03*
X890214D02*
D03*
D151*
X794920Y866530D02*
D03*
Y879230D02*
D03*
Y891930D02*
D03*
Y904630D02*
D03*
X736500Y866530D02*
D03*
Y879230D02*
D03*
Y891930D02*
D03*
Y904630D02*
D03*
D152*
X967714Y1211016D02*
D03*
Y1223716D02*
D03*
Y1236416D02*
D03*
Y1249116D02*
D03*
X890244Y1211016D02*
D03*
Y1223716D02*
D03*
Y1236416D02*
D03*
Y1249116D02*
D03*
D153*
X770200Y1607500D02*
D03*
X729800D02*
D03*
X770200Y1422500D02*
D03*
X729800D02*
D03*
D154*
X1652500Y1195500D02*
D03*
X1647500D02*
D03*
X1642500D02*
D03*
X1637500D02*
D03*
X1632500D02*
D03*
X1627500D02*
D03*
X1622500D02*
D03*
X1617500D02*
D03*
X1612500D02*
D03*
X1607500D02*
D03*
X1602500D02*
D03*
X1597500D02*
D03*
X1592500D02*
D03*
X1587500D02*
D03*
X1582500D02*
D03*
X1577500D02*
D03*
X1572500D02*
D03*
X1567500D02*
D03*
X1562500D02*
D03*
X1557500D02*
D03*
X1552500D02*
D03*
X1547500D02*
D03*
X1542500D02*
D03*
X1537500D02*
D03*
X1532500D02*
D03*
X1527500D02*
D03*
X1522500D02*
D03*
X1517500D02*
D03*
X1512500D02*
D03*
X1507500D02*
D03*
X1502500D02*
D03*
X1497500D02*
D03*
X1492500D02*
D03*
X1487500D02*
D03*
X1482500D02*
D03*
X1477500D02*
D03*
X1472500D02*
D03*
X1467500D02*
D03*
Y1359500D02*
D03*
X1472500D02*
D03*
X1477500D02*
D03*
X1482500D02*
D03*
X1487500D02*
D03*
X1492500D02*
D03*
X1497500D02*
D03*
X1502500D02*
D03*
X1507500D02*
D03*
X1512500D02*
D03*
X1517500D02*
D03*
X1522500D02*
D03*
X1527500D02*
D03*
X1532500D02*
D03*
X1537500D02*
D03*
X1542500D02*
D03*
X1547500D02*
D03*
X1552500D02*
D03*
X1557500D02*
D03*
X1562500D02*
D03*
X1567500D02*
D03*
X1572500D02*
D03*
X1577500D02*
D03*
X1582500D02*
D03*
X1587500D02*
D03*
X1592500D02*
D03*
X1597500D02*
D03*
X1602500D02*
D03*
X1607500D02*
D03*
X1612500D02*
D03*
X1617500D02*
D03*
X1622500D02*
D03*
X1627500D02*
D03*
X1632500D02*
D03*
X1637500D02*
D03*
X1642500D02*
D03*
X1647500D02*
D03*
X1652500D02*
D03*
D155*
X1594999Y1117500D02*
D03*
X1530999Y1142500D02*
D03*
Y1117500D02*
D03*
X1594999Y1142500D02*
D03*
D156*
X1288250Y1339250D02*
D03*
Y1332750D02*
D03*
Y1326250D02*
D03*
Y1319750D02*
D03*
Y1313250D02*
D03*
Y1306750D02*
D03*
Y1300250D02*
D03*
Y1293750D02*
D03*
Y1287250D02*
D03*
Y1280750D02*
D03*
Y1274250D02*
D03*
Y1267750D02*
D03*
Y1261250D02*
D03*
Y1254750D02*
D03*
Y1248250D02*
D03*
Y1241750D02*
D03*
Y1235250D02*
D03*
Y1228750D02*
D03*
Y1222250D02*
D03*
Y1215750D02*
D03*
X1071750D02*
D03*
Y1222250D02*
D03*
Y1228750D02*
D03*
Y1235250D02*
D03*
Y1241750D02*
D03*
Y1248250D02*
D03*
Y1254750D02*
D03*
Y1261250D02*
D03*
Y1267750D02*
D03*
Y1274250D02*
D03*
Y1280750D02*
D03*
Y1287250D02*
D03*
Y1293750D02*
D03*
Y1300250D02*
D03*
Y1306750D02*
D03*
Y1313250D02*
D03*
Y1319750D02*
D03*
Y1326250D02*
D03*
Y1332750D02*
D03*
Y1339250D02*
D03*
D157*
X1274250Y1199250D02*
D03*
X1267750D02*
D03*
X1261250D02*
D03*
X1254750D02*
D03*
X1248250D02*
D03*
X1241750D02*
D03*
X1235250D02*
D03*
X1228750D02*
D03*
X1222250D02*
D03*
X1215750D02*
D03*
X1209250D02*
D03*
X1202750D02*
D03*
X1196250D02*
D03*
X1189750D02*
D03*
X1183250D02*
D03*
X1176750D02*
D03*
X1170250D02*
D03*
X1163750D02*
D03*
X1157250D02*
D03*
X1150750D02*
D03*
X1144250D02*
D03*
X1137750D02*
D03*
X1131250D02*
D03*
X1124750D02*
D03*
X1118250D02*
D03*
X1111750D02*
D03*
X1105250D02*
D03*
X1098750D02*
D03*
X1092250D02*
D03*
X1085750D02*
D03*
Y1355750D02*
D03*
X1092250D02*
D03*
X1098750D02*
D03*
X1105250D02*
D03*
X1111750D02*
D03*
X1118250D02*
D03*
X1124750D02*
D03*
X1131250D02*
D03*
X1137750D02*
D03*
X1144250D02*
D03*
X1150750D02*
D03*
X1157250D02*
D03*
X1163750D02*
D03*
X1170250D02*
D03*
X1176750D02*
D03*
X1183250D02*
D03*
X1189750D02*
D03*
X1196250D02*
D03*
X1202750D02*
D03*
X1209250D02*
D03*
X1215750D02*
D03*
X1222250D02*
D03*
X1228750D02*
D03*
X1235250D02*
D03*
X1241750D02*
D03*
X1248250D02*
D03*
X1254750D02*
D03*
X1261250D02*
D03*
X1267750D02*
D03*
X1274250D02*
D03*
D158*
X603083Y1383000D02*
D03*
X570063D02*
D03*
D159*
X1053713Y814358D02*
D03*
X1057249Y810822D02*
D03*
X1060784Y807287D02*
D03*
X1064320Y803751D02*
D03*
X1067855Y800216D02*
D03*
X1071391Y796680D02*
D03*
X1074926Y793145D02*
D03*
X1078462Y789609D02*
D03*
X1081997Y786074D02*
D03*
X1085533Y782538D02*
D03*
X1089069Y779003D02*
D03*
X1092604Y775467D02*
D03*
X1096140Y771932D02*
D03*
X1099675Y768396D02*
D03*
X1103211Y764860D02*
D03*
X1106746Y761325D02*
D03*
X1168971Y823550D02*
D03*
X1165436Y827086D02*
D03*
X1161900Y830621D02*
D03*
X1158365Y834157D02*
D03*
X1154829Y837692D02*
D03*
X1151294Y841228D02*
D03*
X1147758Y844763D02*
D03*
X1144223Y848299D02*
D03*
X1140687Y851834D02*
D03*
X1137152Y855370D02*
D03*
X1133616Y858905D02*
D03*
X1130081Y862441D02*
D03*
X1126545Y865977D02*
D03*
X1123010Y869512D02*
D03*
X1119474Y873048D02*
D03*
X1115938Y876583D02*
D03*
D160*
Y761325D02*
D03*
X1119474Y764860D02*
D03*
X1123010Y768396D02*
D03*
X1126545Y771932D02*
D03*
X1130081Y775467D02*
D03*
X1133616Y779003D02*
D03*
X1137152Y782538D02*
D03*
X1140687Y786074D02*
D03*
X1144223Y789609D02*
D03*
X1147758Y793145D02*
D03*
X1151294Y796680D02*
D03*
X1154829Y800216D02*
D03*
X1158365Y803751D02*
D03*
X1161900Y807287D02*
D03*
X1165436Y810822D02*
D03*
X1168971Y814358D02*
D03*
X1106746Y876583D02*
D03*
X1103211Y873048D02*
D03*
X1099675Y869512D02*
D03*
X1096140Y865977D02*
D03*
X1092604Y862441D02*
D03*
X1089069Y858905D02*
D03*
X1085533Y855370D02*
D03*
X1081997Y851834D02*
D03*
X1078462Y848299D02*
D03*
X1074926Y844763D02*
D03*
X1071391Y841228D02*
D03*
X1067855Y837692D02*
D03*
X1064320Y834157D02*
D03*
X1060784Y830621D02*
D03*
X1057249Y827086D02*
D03*
X1053713Y823550D02*
D03*
D161*
X1351794Y754834D02*
D03*
X1348258Y758370D02*
D03*
X1344723Y761905D02*
D03*
X1341187Y765441D02*
D03*
X1337652Y768977D02*
D03*
X1334116Y772512D02*
D03*
X1330581Y776048D02*
D03*
X1327045Y779583D02*
D03*
X1323510Y783119D02*
D03*
X1319974Y786654D02*
D03*
X1316438Y790190D02*
D03*
X1312903Y793725D02*
D03*
X1309367Y797261D02*
D03*
X1305832Y800796D02*
D03*
X1302296Y804332D02*
D03*
X1298761Y807867D02*
D03*
X1295225Y811403D02*
D03*
X1291690Y814938D02*
D03*
X1360633Y883881D02*
D03*
X1364168Y880346D02*
D03*
X1367704Y876810D02*
D03*
X1371239Y873275D02*
D03*
X1374775Y869739D02*
D03*
X1378310Y866204D02*
D03*
X1381846Y862668D02*
D03*
X1385381Y859133D02*
D03*
X1388917Y855597D02*
D03*
X1392452Y852061D02*
D03*
X1395988Y848526D02*
D03*
X1399523Y844990D02*
D03*
X1403059Y841455D02*
D03*
X1406595Y837919D02*
D03*
X1410130Y834384D02*
D03*
X1413666Y830848D02*
D03*
X1417201Y827313D02*
D03*
X1420737Y823777D02*
D03*
D162*
X1228750Y1142386D02*
X1234497Y1148134D01*
X1223003D02*
X1228750Y1142386D01*
X1392887Y978250D02*
X1398634Y972503D01*
X1392887Y978250D02*
X1398634Y983997D01*
X1058866Y972503D02*
X1064613Y978250D01*
X1058866Y983997D02*
X1064613Y978250D01*
D163*
X1111431Y818866D02*
D03*
D164*
X1595300Y1597100D02*
D03*
Y1622500D02*
D03*
X1620700Y1597100D02*
D03*
Y1622500D02*
D03*
X1646100D02*
D03*
X1671500D02*
D03*
X1696900D02*
D03*
X1722300D02*
D03*
X1747700D02*
D03*
X1646100Y1597100D02*
D03*
X1671500D02*
D03*
X1696900D02*
D03*
X1722300D02*
D03*
X1747700D02*
D03*
X2076000Y1558000D02*
D03*
D165*
X615000Y1527500D02*
D03*
X560000D02*
D03*
Y1570000D02*
D03*
X615000D02*
D03*
D166*
X1110128Y1532500D02*
D03*
X1229548D02*
D03*
D167*
X2050000Y1060000D02*
D03*
Y885000D02*
D03*
X592000Y1311847D02*
D03*
Y1286447D02*
D03*
Y1261047D02*
D03*
Y1235647D02*
D03*
D168*
X2024600Y1085400D02*
D03*
Y1034600D02*
D03*
X2075400D02*
D03*
Y1085400D02*
D03*
X2024600Y910400D02*
D03*
Y859600D02*
D03*
X2075400D02*
D03*
Y910400D02*
D03*
D169*
X538480Y1662430D02*
D03*
X1885200D02*
D03*
X1428000Y1059700D02*
D03*
X1885200Y1161300D02*
D03*
X1884946Y538746D02*
D03*
X1326400Y539000D02*
D03*
X1097800D02*
D03*
X539000D02*
D03*
Y1161300D02*
D03*
X996200Y1059700D02*
D03*
D170*
X1775390Y762110D02*
D03*
X1110282Y783245D02*
D03*
X1356213Y819358D02*
D03*
X741590Y1520990D02*
D03*
X750480D02*
D03*
X1115208Y1532500D02*
D03*
X1115208Y1541390D02*
D03*
Y1523610D02*
D03*
X1125368Y1541390D02*
D03*
Y1532500D02*
D03*
Y1523610D02*
D03*
X1094888D02*
D03*
Y1532500D02*
D03*
Y1541390D02*
D03*
X1105048Y1523610D02*
D03*
Y1541390D02*
D03*
X1105048Y1532500D02*
D03*
X1753500Y726110D02*
D03*
X1731500D02*
D03*
X1764500Y735110D02*
D03*
X1742500D02*
D03*
X1753500Y744110D02*
D03*
X1731500D02*
D03*
X1764500Y753110D02*
D03*
X1742500D02*
D03*
X1753500Y762110D02*
D03*
X1731500D02*
D03*
X1775390Y744110D02*
D03*
Y726110D02*
D03*
X1742500Y772000D02*
D03*
X1764500D02*
D03*
X750480Y1508290D02*
D03*
X759370D02*
D03*
X741590D02*
D03*
X759370Y1520990D02*
D03*
X1234628Y1532500D02*
D03*
Y1541390D02*
D03*
Y1523610D02*
D03*
X1244788Y1541390D02*
D03*
Y1532500D02*
D03*
Y1523610D02*
D03*
X1214308D02*
D03*
Y1532500D02*
D03*
Y1541390D02*
D03*
X1224468Y1523610D02*
D03*
Y1541390D02*
D03*
Y1532500D02*
D03*
X904214Y1573000D02*
D03*
X916214D02*
D03*
X904214Y1562500D02*
D03*
X916214D02*
D03*
X904214Y1552000D02*
D03*
X916214D02*
D03*
X741590Y1335990D02*
D03*
X750480D02*
D03*
X759370D02*
D03*
X741590Y1323290D02*
D03*
X759370D02*
D03*
X750480D02*
D03*
X904214Y1410500D02*
D03*
X916214D02*
D03*
X904214Y1400000D02*
D03*
X916214D02*
D03*
X904214Y1389500D02*
D03*
X916214D02*
D03*
X1146344Y819308D02*
D03*
X1134323Y807287D02*
D03*
X1135031Y830621D02*
D03*
X1123010Y818600D02*
D03*
X1122303Y795266D02*
D03*
X1098968Y794559D02*
D03*
X1110989Y806580D02*
D03*
X1123010Y842642D02*
D03*
X1111696Y853956D02*
D03*
X1099675Y841935D02*
D03*
X1086947Y806580D02*
D03*
X1075633Y817893D02*
D03*
X1086947Y829207D02*
D03*
X1098968Y818600D02*
D03*
X1110989Y830621D02*
D03*
X1327752Y819888D02*
D03*
X1342248Y834384D02*
D03*
X1356213Y848349D02*
D03*
X1342248Y819888D02*
D03*
X1356213Y833854D02*
D03*
X1341718Y805923D02*
D03*
X1370179Y834384D02*
D03*
X1356213Y805923D02*
D03*
X1370179Y819888D02*
D03*
X1356213Y791427D02*
D03*
X1370709Y805923D02*
D03*
X1384674Y819888D02*
D03*
D171*
X750480Y1514640D02*
D03*
Y1329640D02*
D03*
D172*
X874280Y975118D02*
D03*
Y631202D02*
D03*
X1549920Y975118D02*
D03*
Y631202D02*
D03*
D173*
X2055100Y652700D02*
D03*
X2029700D02*
D03*
Y678100D02*
D03*
X2055100D02*
D03*
Y703500D02*
D03*
X2029700D02*
D03*
Y728900D02*
D03*
X2055100D02*
D03*
Y601900D02*
D03*
X2029700D02*
D03*
Y627300D02*
D03*
X2055100D02*
D03*
D174*
X910214Y1562500D02*
D03*
Y1400000D02*
D03*
D175*
X2061750Y1269355D02*
D03*
Y1430645D02*
D03*
D176*
X2030000Y1413500D02*
D03*
Y1286500D02*
D03*
D177*
X1877600Y1400800D02*
D03*
Y1380480D02*
D03*
Y1360160D02*
D03*
Y1339840D02*
D03*
Y1319520D02*
D03*
Y1299200D02*
D03*
X1852200Y1410960D02*
D03*
Y1390640D02*
D03*
Y1370320D02*
D03*
Y1329680D02*
D03*
Y1309360D02*
D03*
Y1289040D02*
D03*
D178*
X2031000Y1558000D02*
D03*
X1971000D02*
D03*
D179*
X2001000Y1605000D02*
D03*
M02*
