G04 Layer_Color=16711935*
%FSLAX44Y44*%
%MOMM*%
G71*
G01*
G75*
%ADD77C,2.0320*%
%ADD108R,0.8032X0.7032*%
%ADD109R,1.0032X1.1032*%
G04:AMPARAMS|DCode=115|XSize=0.7032mm|YSize=0.8032mm|CornerRadius=0mm|HoleSize=0mm|Usage=FLASHONLY|Rotation=135.000|XOffset=0mm|YOffset=0mm|HoleType=Round|Shape=Rectangle|*
%AMROTATEDRECTD115*
4,1,4,0.5326,0.0354,-0.0354,-0.5326,-0.5326,-0.0354,0.0354,0.5326,0.5326,0.0354,0.0*
%
%ADD115ROTATEDRECTD115*%

G04:AMPARAMS|DCode=116|XSize=0.7032mm|YSize=0.8032mm|CornerRadius=0mm|HoleSize=0mm|Usage=FLASHONLY|Rotation=45.000|XOffset=0mm|YOffset=0mm|HoleType=Round|Shape=Rectangle|*
%AMROTATEDRECTD116*
4,1,4,0.0354,-0.5326,-0.5326,0.0354,-0.0354,0.5326,0.5326,-0.0354,0.0354,-0.5326,0.0*
%
%ADD116ROTATEDRECTD116*%

%ADD117R,2.8032X1.6032*%
%ADD119R,0.8128X0.8032*%
G04:AMPARAMS|DCode=122|XSize=0.8128mm|YSize=0.8032mm|CornerRadius=0mm|HoleSize=0mm|Usage=FLASHONLY|Rotation=45.000|XOffset=0mm|YOffset=0mm|HoleType=Round|Shape=Rectangle|*
%AMROTATEDRECTD122*
4,1,4,-0.0034,-0.5713,-0.5713,-0.0034,0.0034,0.5713,0.5713,0.0034,-0.0034,-0.5713,0.0*
%
%ADD122ROTATEDRECTD122*%

%ADD123R,0.8032X0.8128*%
%ADD124R,0.7532X0.7032*%
%ADD126R,0.7032X0.8032*%
G04:AMPARAMS|DCode=154|XSize=0.8128mm|YSize=0.8032mm|CornerRadius=0mm|HoleSize=0mm|Usage=FLASHONLY|Rotation=315.000|XOffset=0mm|YOffset=0mm|HoleType=Round|Shape=Rectangle|*
%AMROTATEDRECTD154*
4,1,4,-0.5713,0.0034,-0.0034,0.5713,0.5713,-0.0034,0.0034,-0.5713,-0.5713,0.0034,0.0*
%
%ADD154ROTATEDRECTD154*%

%ADD157R,1.6032X2.8032*%
%ADD162R,1.1032X1.0032*%
%ADD163C,1.7032*%
%ADD166C,0.9032*%
%ADD167O,2.8032X1.7432*%
%ADD168O,1.7432X2.8032*%
%ADD169C,2.2352*%
%ADD170C,1.8542*%
%ADD171C,3.4544*%
%ADD172C,2.4892*%
%ADD173C,1.8032*%
%ADD176C,6.2032*%
%ADD177C,2.2032*%
%ADD179C,3.0032*%
%ADD180C,2.7032*%
%ADD181R,4.2032X2.7032*%
%ADD182R,2.7032X4.2032*%
%ADD183R,1.9032X1.4532*%
%ADD184R,2.7032X3.0032*%
%ADD185R,1.3032X1.6032*%
%ADD186R,1.6032X1.3032*%
G04:AMPARAMS|DCode=187|XSize=1.1032mm|YSize=1.0032mm|CornerRadius=0mm|HoleSize=0mm|Usage=FLASHONLY|Rotation=315.000|XOffset=0mm|YOffset=0mm|HoleType=Round|Shape=Rectangle|*
%AMROTATEDRECTD187*
4,1,4,-0.7447,0.0354,-0.0354,0.7447,0.7447,-0.0354,0.0354,-0.7447,-0.7447,0.0354,0.0*
%
%ADD187ROTATEDRECTD187*%

G04:AMPARAMS|DCode=188|XSize=1.1032mm|YSize=1.0032mm|CornerRadius=0mm|HoleSize=0mm|Usage=FLASHONLY|Rotation=45.000|XOffset=0mm|YOffset=0mm|HoleType=Round|Shape=Rectangle|*
%AMROTATEDRECTD188*
4,1,4,-0.0354,-0.7447,-0.7447,-0.0354,0.0354,0.7447,0.7447,0.0354,-0.0354,-0.7447,0.0*
%
%ADD188ROTATEDRECTD188*%

%ADD189R,0.6032X0.7532*%
G04:AMPARAMS|DCode=190|XSize=1.0032mm|YSize=1.2032mm|CornerRadius=0.3016mm|HoleSize=0mm|Usage=FLASHONLY|Rotation=90.000|XOffset=0mm|YOffset=0mm|HoleType=Round|Shape=RoundedRectangle|*
%AMROUNDEDRECTD190*
21,1,1.0032,0.6000,0,0,90.0*
21,1,0.4000,1.2032,0,0,90.0*
1,1,0.6032,0.3000,0.2000*
1,1,0.6032,0.3000,-0.2000*
1,1,0.6032,-0.3000,-0.2000*
1,1,0.6032,-0.3000,0.2000*
%
%ADD190ROUNDEDRECTD190*%
D77*
X1826800Y1289040D02*
D03*
Y1314440D02*
D03*
Y1385560D02*
D03*
Y1410960D02*
D03*
D108*
X785960Y1515000D02*
D03*
X775960D02*
D03*
X915214Y1585000D02*
D03*
X905214D02*
D03*
Y1422500D02*
D03*
X915214D02*
D03*
X785960Y1330000D02*
D03*
X775960D02*
D03*
X985750Y677500D02*
D03*
X995750D02*
D03*
X995750Y687500D02*
D03*
X985750D02*
D03*
X965750Y707500D02*
D03*
X975750D02*
D03*
X738500Y643000D02*
D03*
X748500D02*
D03*
X887714Y1540000D02*
D03*
X877714D02*
D03*
X887714Y1377500D02*
D03*
X877714D02*
D03*
X1471000Y1582500D02*
D03*
X1481000D02*
D03*
X1820000Y1350000D02*
D03*
X1830000D02*
D03*
X1910000Y1400000D02*
D03*
X1900000D02*
D03*
X1870000Y1423000D02*
D03*
X1880000D02*
D03*
X1910000Y1300000D02*
D03*
X1900000D02*
D03*
X1870000Y1277500D02*
D03*
X1880000D02*
D03*
X1900000Y1350000D02*
D03*
X1910000D02*
D03*
X1443000Y1322500D02*
D03*
X1453000D02*
D03*
X1443000Y1292500D02*
D03*
X1453000D02*
D03*
X1443000Y1267500D02*
D03*
X1453000D02*
D03*
X1443000Y1242500D02*
D03*
X1453000D02*
D03*
X1443000Y1217500D02*
D03*
X1453000D02*
D03*
X1667000Y1317500D02*
D03*
X1677000D02*
D03*
X1667000Y1287500D02*
D03*
X1677000D02*
D03*
X1667000Y1257500D02*
D03*
X1677000D02*
D03*
X1667000Y1227500D02*
D03*
X1677000D02*
D03*
X1667000Y1217500D02*
D03*
X1677000D02*
D03*
X1987000Y1558250D02*
D03*
X1997000D02*
D03*
X1283250Y1277500D02*
D03*
X1293250D02*
D03*
X1066750Y1277500D02*
D03*
X1076750D02*
D03*
X1628500Y606000D02*
D03*
X1638500D02*
D03*
X1715500Y763500D02*
D03*
X1705500D02*
D03*
Y748500D02*
D03*
X1715500D02*
D03*
X1790500Y712000D02*
D03*
X1800500D02*
D03*
X1790500Y720000D02*
D03*
X1800500D02*
D03*
X1790500Y728000D02*
D03*
X1800500D02*
D03*
X1790500Y751000D02*
D03*
X1800500D02*
D03*
X1790500Y759000D02*
D03*
X1800500D02*
D03*
X1790500Y767000D02*
D03*
X1800500D02*
D03*
X1790500Y775000D02*
D03*
X1800500D02*
D03*
X587073Y1546298D02*
D03*
X597073D02*
D03*
X965750Y779500D02*
D03*
X975750D02*
D03*
X985750Y759750D02*
D03*
X995750D02*
D03*
X985750Y749250D02*
D03*
X995750D02*
D03*
X965750Y729500D02*
D03*
X975750D02*
D03*
X965750Y657500D02*
D03*
X975750D02*
D03*
D109*
X942214Y1532500D02*
D03*
X928214D02*
D03*
X942214Y1370000D02*
D03*
X928214D02*
D03*
X1713000Y1127500D02*
D03*
X1727000D02*
D03*
X1713000Y1112500D02*
D03*
X1727000D02*
D03*
X1733000Y1160000D02*
D03*
X1747000D02*
D03*
X1733000Y1145000D02*
D03*
X1747000D02*
D03*
X1774000Y894500D02*
D03*
X1788000D02*
D03*
X1774000Y882000D02*
D03*
X1788000D02*
D03*
X1470213Y638358D02*
D03*
X1484213D02*
D03*
X1470213Y650858D02*
D03*
X1484213D02*
D03*
X1316213Y658358D02*
D03*
X1330213D02*
D03*
X1316213Y670858D02*
D03*
X1330213D02*
D03*
X1208463Y658358D02*
D03*
X1194463D02*
D03*
X1208463Y670858D02*
D03*
X1194463D02*
D03*
X1008693Y972858D02*
D03*
X1022693D02*
D03*
X1008693Y985358D02*
D03*
X1022693D02*
D03*
D115*
X1179286Y1020786D02*
D03*
X1172215Y1013714D02*
D03*
X1137785Y856036D02*
D03*
X1130714Y848964D02*
D03*
X1207464Y1077215D02*
D03*
X1214536Y1084286D02*
D03*
X1285214Y999464D02*
D03*
X1292285Y1006536D02*
D03*
X1143785Y999536D02*
D03*
X1136714Y992465D02*
D03*
X1165035Y992535D02*
D03*
X1157964Y985464D02*
D03*
X1157964Y957215D02*
D03*
X1165035Y964286D02*
D03*
X1186214Y914715D02*
D03*
X1193286Y921786D02*
D03*
X1200464Y914715D02*
D03*
X1207535Y921786D02*
D03*
X1214464Y900464D02*
D03*
X1221535Y907535D02*
D03*
X1172214Y886464D02*
D03*
X1179286Y893536D02*
D03*
X1200464Y872215D02*
D03*
X1207535Y879286D02*
D03*
X1214536Y858036D02*
D03*
X1207465Y850964D02*
D03*
X1242714Y886464D02*
D03*
X1249786Y893536D02*
D03*
X1256964Y914715D02*
D03*
X1264035Y921786D02*
D03*
X1271285Y900536D02*
D03*
X1264214Y893465D02*
D03*
X1242786Y844035D02*
D03*
X1235714Y836964D02*
D03*
X1271215Y872215D02*
D03*
X1278286Y879286D02*
D03*
X1278214Y949965D02*
D03*
X1285285Y957036D02*
D03*
X1299465Y957215D02*
D03*
X1306535Y964286D02*
D03*
X1306464Y935965D02*
D03*
X1313535Y943036D02*
D03*
X1313714Y914715D02*
D03*
X1320786Y921786D02*
D03*
X1327678Y942964D02*
D03*
X1334749Y950036D02*
D03*
X1313714Y985464D02*
D03*
X1320786Y992536D02*
D03*
X1341714Y971215D02*
D03*
X1348786Y978286D02*
D03*
X1327678Y1013715D02*
D03*
X1334749Y1020786D02*
D03*
X1299465Y1027964D02*
D03*
X1306535Y1035035D02*
D03*
X1249786Y1049035D02*
D03*
X1242714Y1041964D02*
D03*
X1271285Y1042036D02*
D03*
X1264214Y1034965D02*
D03*
X1292286Y1063036D02*
D03*
X1285215Y1055964D02*
D03*
X1264035Y1077286D02*
D03*
X1256964Y1070214D02*
D03*
X1221536Y1063036D02*
D03*
X1214464Y1055964D02*
D03*
X1249965Y1091464D02*
D03*
X1257036Y1098536D02*
D03*
X1151036Y1035035D02*
D03*
X1143964Y1027964D02*
D03*
X1165214Y1063214D02*
D03*
X1172286Y1070285D02*
D03*
X1207536Y1105786D02*
D03*
X1200464Y1098714D02*
D03*
X1221714Y1105726D02*
D03*
X1228785Y1112797D02*
D03*
X1311678Y792822D02*
D03*
X1318749Y799893D02*
D03*
X1327678Y776822D02*
D03*
X1334749Y783893D02*
D03*
X1333678Y770822D02*
D03*
X1340749Y777893D02*
D03*
X1382749Y863893D02*
D03*
X1375678Y856822D02*
D03*
X1399749Y846893D02*
D03*
X1392678Y839822D02*
D03*
X1402678Y829822D02*
D03*
X1409749Y836893D02*
D03*
D116*
X1228715Y1027786D02*
D03*
X1235786Y1020714D02*
D03*
X1228785Y1013715D02*
D03*
X1221714Y1020786D02*
D03*
X1193214Y992536D02*
D03*
X1200286Y985464D02*
D03*
X1200285Y957214D02*
D03*
X1193214Y964286D02*
D03*
X1186215Y985286D02*
D03*
X1193286Y978214D02*
D03*
X1242714Y1013786D02*
D03*
X1249786Y1006714D02*
D03*
X1242785Y999464D02*
D03*
X1235714Y1006535D02*
D03*
X1235786Y992465D02*
D03*
X1228715Y999536D02*
D03*
X1221714Y992536D02*
D03*
X1228786Y985464D02*
D03*
X1207465Y978286D02*
D03*
X1214536Y971215D02*
D03*
X1200464Y971286D02*
D03*
X1207535Y964214D02*
D03*
X1256964Y999536D02*
D03*
X1264035Y992465D02*
D03*
X1257036Y985464D02*
D03*
X1249965Y992535D02*
D03*
X1249786Y978465D02*
D03*
X1242714Y985536D02*
D03*
X1221464Y964286D02*
D03*
X1228536Y957215D02*
D03*
X1214464Y957036D02*
D03*
X1221535Y949965D02*
D03*
X1214536Y942964D02*
D03*
X1207464Y950035D02*
D03*
X1271215Y985536D02*
D03*
X1278286Y978465D02*
D03*
X1271285Y971215D02*
D03*
X1264214Y978286D02*
D03*
X1264035Y964214D02*
D03*
X1256964Y971285D02*
D03*
X1249965Y964286D02*
D03*
X1257036Y957215D02*
D03*
X1249786Y949964D02*
D03*
X1242714Y957036D02*
D03*
X1235714Y950286D02*
D03*
X1242786Y943214D02*
D03*
X1235786Y935964D02*
D03*
X1228715Y943036D02*
D03*
X1221464Y936036D02*
D03*
X1228536Y928964D02*
D03*
X1290464Y825035D02*
D03*
X1297536Y817964D02*
D03*
X1350464Y885035D02*
D03*
X1357536Y877964D02*
D03*
X1356678Y762893D02*
D03*
X1363749Y755822D02*
D03*
X1362678Y768893D02*
D03*
X1369749Y761822D02*
D03*
X1368678Y774893D02*
D03*
X1375749Y767822D02*
D03*
X1374678Y780893D02*
D03*
X1381749Y773822D02*
D03*
X1380678Y786893D02*
D03*
X1387749Y779822D02*
D03*
X1386678Y792893D02*
D03*
X1393749Y785822D02*
D03*
X1392678Y798893D02*
D03*
X1399749Y791822D02*
D03*
X1398678Y804893D02*
D03*
X1405749Y797822D02*
D03*
X1408678Y814893D02*
D03*
X1415749Y807822D02*
D03*
X1414678Y820893D02*
D03*
X1421749Y813822D02*
D03*
X1427749Y819822D02*
D03*
X1420678Y826893D02*
D03*
D117*
X720000Y1565240D02*
D03*
Y1534760D02*
D03*
X780000Y1565240D02*
D03*
Y1534760D02*
D03*
X1237048Y1505240D02*
D03*
Y1474760D02*
D03*
Y1559760D02*
D03*
Y1590240D02*
D03*
X1117628Y1559760D02*
D03*
Y1590240D02*
D03*
Y1505240D02*
D03*
Y1474760D02*
D03*
X720000Y1380240D02*
D03*
Y1349760D02*
D03*
X780000Y1380240D02*
D03*
Y1349760D02*
D03*
X1830000Y726760D02*
D03*
Y757240D02*
D03*
X1151000Y694420D02*
D03*
Y723376D02*
D03*
X1010750Y861526D02*
D03*
Y890482D02*
D03*
X1340249Y692260D02*
D03*
Y722740D02*
D03*
X1372749Y721724D02*
D03*
Y692768D02*
D03*
X1412999Y692260D02*
D03*
Y722740D02*
D03*
X1445499Y721724D02*
D03*
Y692768D02*
D03*
D119*
X1257048Y1554920D02*
D03*
Y1565080D02*
D03*
Y1574920D02*
D03*
Y1585080D02*
D03*
X1137628Y1554920D02*
D03*
Y1565080D02*
D03*
Y1574920D02*
D03*
Y1585080D02*
D03*
X1257048Y1510080D02*
D03*
Y1499920D02*
D03*
Y1479920D02*
D03*
Y1490080D02*
D03*
X942714Y1555080D02*
D03*
Y1544920D02*
D03*
X1137628Y1510080D02*
D03*
Y1499920D02*
D03*
Y1490080D02*
D03*
Y1479920D02*
D03*
X942714Y1392580D02*
D03*
Y1382420D02*
D03*
X985750Y739580D02*
D03*
Y729420D02*
D03*
Y769420D02*
D03*
Y779580D02*
D03*
X1645000Y1222420D02*
D03*
Y1232580D02*
D03*
X1635000Y1222420D02*
D03*
Y1232580D02*
D03*
X1625000Y1222420D02*
D03*
Y1232580D02*
D03*
X1542500Y1190420D02*
D03*
Y1200580D02*
D03*
X1497750Y1324920D02*
D03*
Y1335080D02*
D03*
X1487750Y1324920D02*
D03*
Y1335080D02*
D03*
X1992500Y879920D02*
D03*
Y890080D02*
D03*
X1984000Y1056920D02*
D03*
Y1067080D02*
D03*
X1974000Y1056920D02*
D03*
Y1067080D02*
D03*
X1759500Y700920D02*
D03*
Y711080D02*
D03*
X782710Y887500D02*
D03*
Y897660D02*
D03*
X772710Y887500D02*
D03*
Y897660D02*
D03*
X1015750Y775420D02*
D03*
Y785580D02*
D03*
X1005750Y775420D02*
D03*
Y785580D02*
D03*
X995750Y775420D02*
D03*
Y785580D02*
D03*
X1015750Y723420D02*
D03*
Y733580D02*
D03*
X1005750Y723420D02*
D03*
Y733580D02*
D03*
X995750Y723420D02*
D03*
Y733580D02*
D03*
X1015750Y703420D02*
D03*
Y713580D02*
D03*
X1005750Y703420D02*
D03*
Y713580D02*
D03*
X995750Y703420D02*
D03*
Y713580D02*
D03*
X1015750Y651420D02*
D03*
Y661580D02*
D03*
X1005750Y651420D02*
D03*
Y661580D02*
D03*
X995750Y651420D02*
D03*
Y661580D02*
D03*
X985750Y667580D02*
D03*
Y657420D02*
D03*
Y697420D02*
D03*
Y707580D02*
D03*
X1756000Y1576080D02*
D03*
Y1565920D02*
D03*
D122*
X1047092Y837158D02*
D03*
X1039908Y844342D02*
D03*
D123*
X2000080Y640000D02*
D03*
X1989920D02*
D03*
X2000080Y650000D02*
D03*
X1989920D02*
D03*
X1897920Y710000D02*
D03*
X1908080D02*
D03*
Y700000D02*
D03*
X1897920D02*
D03*
X775880Y1505000D02*
D03*
X786040D02*
D03*
X775880Y1320000D02*
D03*
X786040D02*
D03*
X965670Y697500D02*
D03*
X975830D02*
D03*
X1989920Y660000D02*
D03*
X2000080D02*
D03*
X1989920Y670000D02*
D03*
X2000080D02*
D03*
X1470920Y1573500D02*
D03*
X1481080D02*
D03*
X1789920Y1315000D02*
D03*
X1800080D02*
D03*
X1789920Y1385000D02*
D03*
X1800080D02*
D03*
X1442920Y1342000D02*
D03*
X1453080D02*
D03*
X1442920Y1332000D02*
D03*
X1453080D02*
D03*
X1442920Y1233000D02*
D03*
X1453080D02*
D03*
X622420Y1268747D02*
D03*
X632580D02*
D03*
X622420Y1278747D02*
D03*
X632580D02*
D03*
X965670Y739500D02*
D03*
X975830D02*
D03*
X965670Y769500D02*
D03*
X975830D02*
D03*
X965670Y667500D02*
D03*
X975830D02*
D03*
X1989920Y680000D02*
D03*
X2000080D02*
D03*
Y690000D02*
D03*
X1989920D02*
D03*
X622420Y1289000D02*
D03*
X632580D02*
D03*
D124*
X1820500Y1331800D02*
D03*
Y1338200D02*
D03*
X1829500Y1331800D02*
D03*
Y1338200D02*
D03*
X1820500Y1361800D02*
D03*
Y1368200D02*
D03*
X1829500Y1361800D02*
D03*
Y1368200D02*
D03*
X1900500Y1361800D02*
D03*
Y1368200D02*
D03*
X1909500Y1361800D02*
D03*
Y1368200D02*
D03*
X1900500Y1331800D02*
D03*
Y1338200D02*
D03*
X1909500Y1331800D02*
D03*
Y1338200D02*
D03*
X1702700Y668700D02*
D03*
X1711700D02*
D03*
X1702700Y662300D02*
D03*
X1711700D02*
D03*
X1702700Y678550D02*
D03*
Y684950D02*
D03*
X1711700Y678550D02*
D03*
Y684950D02*
D03*
X1674750Y739800D02*
D03*
Y746200D02*
D03*
X1683750Y739800D02*
D03*
Y746200D02*
D03*
X1674750Y755800D02*
D03*
Y762200D02*
D03*
X1683750Y755800D02*
D03*
Y762200D02*
D03*
D126*
X932714Y1545000D02*
D03*
Y1555000D02*
D03*
X962000Y687500D02*
D03*
Y677500D02*
D03*
X932714Y1382500D02*
D03*
Y1392500D02*
D03*
X1635000Y1354500D02*
D03*
Y1364500D02*
D03*
X1600000Y1354500D02*
D03*
Y1364500D02*
D03*
X1580000Y1354500D02*
D03*
Y1364500D02*
D03*
X1560000Y1354500D02*
D03*
Y1364500D02*
D03*
X1550000Y1354500D02*
D03*
Y1364500D02*
D03*
X1530000Y1354500D02*
D03*
Y1364500D02*
D03*
X1510000Y1354500D02*
D03*
Y1364500D02*
D03*
X1480000Y1354500D02*
D03*
Y1364500D02*
D03*
X1470000Y1354500D02*
D03*
Y1364500D02*
D03*
X1652500Y1190500D02*
D03*
Y1200500D02*
D03*
X1642500D02*
D03*
Y1190500D02*
D03*
X1632500Y1200500D02*
D03*
Y1190500D02*
D03*
X1622500Y1190500D02*
D03*
Y1200500D02*
D03*
X1604750Y1190500D02*
D03*
Y1200500D02*
D03*
X1595000Y1190500D02*
D03*
Y1200500D02*
D03*
X1555000Y1190500D02*
D03*
Y1200500D02*
D03*
X1530000Y1190500D02*
D03*
Y1200500D02*
D03*
X1510000Y1190500D02*
D03*
Y1200500D02*
D03*
X1490000Y1190500D02*
D03*
Y1200500D02*
D03*
X1567999Y1125000D02*
D03*
Y1135000D02*
D03*
X1557999Y1125000D02*
D03*
Y1135000D02*
D03*
X1251500Y1350750D02*
D03*
Y1360750D02*
D03*
X1212500Y1350750D02*
D03*
Y1360750D02*
D03*
X1180000Y1350750D02*
D03*
Y1360750D02*
D03*
X1147500Y1350750D02*
D03*
Y1360750D02*
D03*
X1108500Y1350750D02*
D03*
Y1360750D02*
D03*
X1251500Y1194250D02*
D03*
Y1204250D02*
D03*
X1212500Y1194250D02*
D03*
Y1204250D02*
D03*
X1173500Y1194250D02*
D03*
Y1204250D02*
D03*
X1147500Y1194250D02*
D03*
Y1204250D02*
D03*
X1108500Y1194250D02*
D03*
Y1204250D02*
D03*
X1736500Y786000D02*
D03*
Y796000D02*
D03*
X1728500Y786000D02*
D03*
Y796000D02*
D03*
X1720500Y786000D02*
D03*
Y796000D02*
D03*
X1712500Y786000D02*
D03*
Y796000D02*
D03*
X1776500Y701000D02*
D03*
Y711000D02*
D03*
X1768500Y701000D02*
D03*
Y711000D02*
D03*
X1750500Y701000D02*
D03*
Y711000D02*
D03*
X1742500Y701000D02*
D03*
Y711000D02*
D03*
X1728500Y701000D02*
D03*
Y711000D02*
D03*
X1720500Y701000D02*
D03*
Y711000D02*
D03*
X1712500Y701000D02*
D03*
Y711000D02*
D03*
X961750Y749500D02*
D03*
Y759500D02*
D03*
D154*
X1125592Y769592D02*
D03*
X1118408Y762408D02*
D03*
X1083629Y919781D02*
D03*
X1090813Y926966D02*
D03*
X1091407Y912003D02*
D03*
X1098591Y919187D02*
D03*
X1041158Y792158D02*
D03*
X1048342Y799342D02*
D03*
X1054658Y778908D02*
D03*
X1061842Y786092D02*
D03*
X1047908Y785658D02*
D03*
X1055092Y792842D02*
D03*
X1087908Y745158D02*
D03*
X1095092Y752342D02*
D03*
X1074408Y758658D02*
D03*
X1081592Y765842D02*
D03*
X1081158Y751908D02*
D03*
X1088342Y759092D02*
D03*
D157*
X937474Y1575000D02*
D03*
X967954D02*
D03*
X937474Y1412500D02*
D03*
X967954D02*
D03*
X1786240Y859500D02*
D03*
X1755760D02*
D03*
X1451973Y615858D02*
D03*
X1482453D02*
D03*
X1296973Y635858D02*
D03*
X1327453D02*
D03*
X1174473Y635858D02*
D03*
X1204953D02*
D03*
X990473Y950358D02*
D03*
X1020953D02*
D03*
D162*
X1197750Y1525500D02*
D03*
Y1539500D02*
D03*
X1078048Y1539500D02*
D03*
Y1525500D02*
D03*
X1996000Y1055000D02*
D03*
Y1069000D02*
D03*
X1532500Y1428000D02*
D03*
Y1442000D02*
D03*
X1517500Y1428000D02*
D03*
Y1442000D02*
D03*
X1500000Y1448000D02*
D03*
Y1462000D02*
D03*
X1485000Y1448000D02*
D03*
Y1462000D02*
D03*
X1455250Y1428000D02*
D03*
Y1442000D02*
D03*
X1440250Y1428000D02*
D03*
Y1442000D02*
D03*
X1422750Y1448000D02*
D03*
Y1462000D02*
D03*
X1407750Y1448000D02*
D03*
Y1462000D02*
D03*
X1377750Y1428000D02*
D03*
Y1442000D02*
D03*
X1362750Y1428000D02*
D03*
Y1442000D02*
D03*
X1345250Y1448000D02*
D03*
Y1462000D02*
D03*
X1330250Y1448000D02*
D03*
Y1462000D02*
D03*
X1376750Y1513000D02*
D03*
Y1527000D02*
D03*
X1361750Y1513000D02*
D03*
Y1527000D02*
D03*
X1344250Y1533000D02*
D03*
Y1547000D02*
D03*
X1329250Y1533000D02*
D03*
Y1547000D02*
D03*
X1917500Y838000D02*
D03*
Y852000D02*
D03*
X1902500Y838000D02*
D03*
Y852000D02*
D03*
X1885000Y858000D02*
D03*
Y872000D02*
D03*
X1870000Y858000D02*
D03*
Y872000D02*
D03*
X1667500Y895500D02*
D03*
Y909500D02*
D03*
X1652500Y895500D02*
D03*
Y909500D02*
D03*
X1635000Y915500D02*
D03*
Y929500D02*
D03*
X1620000Y915500D02*
D03*
Y929500D02*
D03*
X1667500Y835500D02*
D03*
Y849500D02*
D03*
X1652500Y835500D02*
D03*
Y849500D02*
D03*
X1635000Y815500D02*
D03*
Y829500D02*
D03*
X1620000Y815500D02*
D03*
Y829500D02*
D03*
X1480000Y895500D02*
D03*
Y909500D02*
D03*
X1465000Y895500D02*
D03*
Y909500D02*
D03*
X1447500Y915500D02*
D03*
Y929500D02*
D03*
X1432500Y915500D02*
D03*
Y929500D02*
D03*
X1298713Y711358D02*
D03*
Y725358D02*
D03*
X1283713Y711358D02*
D03*
Y725358D02*
D03*
X1266213Y731358D02*
D03*
Y745358D02*
D03*
X1251213Y731358D02*
D03*
Y745358D02*
D03*
X1223713Y711358D02*
D03*
Y725358D02*
D03*
X1208713Y711358D02*
D03*
Y725358D02*
D03*
X1191213Y731358D02*
D03*
Y745358D02*
D03*
X1176213Y731358D02*
D03*
Y745358D02*
D03*
X986213Y858858D02*
D03*
Y872858D02*
D03*
X971213Y858858D02*
D03*
Y872858D02*
D03*
X953713Y838858D02*
D03*
Y852858D02*
D03*
X938713Y838858D02*
D03*
Y852858D02*
D03*
X763000Y783750D02*
D03*
Y797750D02*
D03*
X748000Y783750D02*
D03*
Y797750D02*
D03*
X730500Y803750D02*
D03*
Y817750D02*
D03*
X715500Y803750D02*
D03*
Y817750D02*
D03*
X794000Y945000D02*
D03*
Y959000D02*
D03*
X779000Y945000D02*
D03*
Y959000D02*
D03*
X761500Y965000D02*
D03*
Y979000D02*
D03*
X746500Y965000D02*
D03*
Y979000D02*
D03*
D163*
X1549920Y631202D02*
D03*
Y975118D02*
D03*
X874280Y631202D02*
D03*
Y975118D02*
D03*
D166*
X1356213Y819358D02*
D03*
X1110282Y783245D02*
D03*
X1775390Y762110D02*
D03*
X1384674Y819888D02*
D03*
X1370709Y805923D02*
D03*
X1356213Y791427D02*
D03*
X1370179Y819888D02*
D03*
X1356213Y805923D02*
D03*
X1370179Y834384D02*
D03*
X1341718Y805923D02*
D03*
X1356213Y833854D02*
D03*
X1342248Y819888D02*
D03*
X1356213Y848349D02*
D03*
X1342248Y834384D02*
D03*
X1327752Y819888D02*
D03*
X1110989Y830621D02*
D03*
X1098968Y818600D02*
D03*
X1086947Y829207D02*
D03*
X1075633Y817893D02*
D03*
X1086947Y806580D02*
D03*
X1099675Y841935D02*
D03*
X1111696Y853956D02*
D03*
X1123010Y842642D02*
D03*
X1110989Y806580D02*
D03*
X1098968Y794559D02*
D03*
X1122303Y795266D02*
D03*
X1123010Y818600D02*
D03*
X1135031Y830621D02*
D03*
X1134323Y807287D02*
D03*
X1146344Y819308D02*
D03*
X916214Y1389500D02*
D03*
X904214D02*
D03*
X916214Y1400000D02*
D03*
X904214D02*
D03*
X916214Y1410500D02*
D03*
X904214D02*
D03*
X750480Y1323290D02*
D03*
X759370D02*
D03*
X741590D02*
D03*
X759370Y1335990D02*
D03*
X750480D02*
D03*
X741590D02*
D03*
X916214Y1552000D02*
D03*
X904214D02*
D03*
X916214Y1562500D02*
D03*
X904214D02*
D03*
X916214Y1573000D02*
D03*
X904214D02*
D03*
X1224468Y1532500D02*
D03*
Y1541390D02*
D03*
Y1523610D02*
D03*
X1214308Y1541390D02*
D03*
Y1532500D02*
D03*
Y1523610D02*
D03*
X1244788D02*
D03*
Y1532500D02*
D03*
Y1541390D02*
D03*
X1234628Y1523610D02*
D03*
Y1541390D02*
D03*
Y1532500D02*
D03*
X759370Y1520990D02*
D03*
X741590Y1508290D02*
D03*
X759370D02*
D03*
X750480D02*
D03*
X1764500Y772000D02*
D03*
X1742500D02*
D03*
X1775390Y726110D02*
D03*
Y744110D02*
D03*
X1731500Y762110D02*
D03*
X1753500D02*
D03*
X1742500Y753110D02*
D03*
X1764500D02*
D03*
X1731500Y744110D02*
D03*
X1753500D02*
D03*
X1742500Y735110D02*
D03*
X1764500D02*
D03*
X1731500Y726110D02*
D03*
X1753500D02*
D03*
X1105048Y1532500D02*
D03*
X1105048Y1541390D02*
D03*
Y1523610D02*
D03*
X1094888Y1541390D02*
D03*
Y1532500D02*
D03*
Y1523610D02*
D03*
X1125368D02*
D03*
Y1532500D02*
D03*
Y1541390D02*
D03*
X1115208Y1523610D02*
D03*
Y1541390D02*
D03*
X1115208Y1532500D02*
D03*
X750480Y1520990D02*
D03*
X741590D02*
D03*
D167*
X2001000Y1605000D02*
D03*
D168*
X1971000Y1558000D02*
D03*
X2031000D02*
D03*
D169*
X2076000D02*
D03*
X1747700Y1597100D02*
D03*
X1722300D02*
D03*
X1696900D02*
D03*
X1671500D02*
D03*
X1646100D02*
D03*
X1747700Y1622500D02*
D03*
X1722300D02*
D03*
X1696900D02*
D03*
X1671500D02*
D03*
X1646100D02*
D03*
X1620700D02*
D03*
Y1597100D02*
D03*
X1595300Y1622500D02*
D03*
Y1597100D02*
D03*
D170*
X1852200Y1289040D02*
D03*
Y1309360D02*
D03*
Y1329680D02*
D03*
Y1370320D02*
D03*
Y1390640D02*
D03*
Y1410960D02*
D03*
X1877600Y1299200D02*
D03*
Y1319520D02*
D03*
Y1339840D02*
D03*
Y1360160D02*
D03*
Y1380480D02*
D03*
Y1400800D02*
D03*
D171*
X2030000Y1286500D02*
D03*
Y1413500D02*
D03*
D172*
X2061750Y1430645D02*
D03*
Y1269355D02*
D03*
D173*
X2055100Y627300D02*
D03*
X2029700D02*
D03*
Y601900D02*
D03*
X2055100D02*
D03*
Y728900D02*
D03*
X2029700D02*
D03*
Y703500D02*
D03*
X2055100D02*
D03*
Y678100D02*
D03*
X2029700D02*
D03*
Y652700D02*
D03*
X2055100D02*
D03*
D176*
X996200Y1059700D02*
D03*
X539000Y1161300D02*
D03*
Y539000D02*
D03*
X1097800D02*
D03*
X1326400D02*
D03*
X1884946Y538746D02*
D03*
X1885200Y1161300D02*
D03*
X1428000Y1059700D02*
D03*
X1885200Y1662430D02*
D03*
X538480D02*
D03*
D177*
X592000Y1235647D02*
D03*
Y1261047D02*
D03*
Y1286447D02*
D03*
Y1311847D02*
D03*
X2050000Y885000D02*
D03*
Y1060000D02*
D03*
D179*
X2075400Y910400D02*
D03*
Y859600D02*
D03*
X2024600D02*
D03*
Y910400D02*
D03*
X2075400Y1085400D02*
D03*
Y1034600D02*
D03*
X2024600D02*
D03*
Y1085400D02*
D03*
D180*
X615000Y1570000D02*
D03*
X560000D02*
D03*
Y1527500D02*
D03*
X615000D02*
D03*
D181*
X1921000Y1521900D02*
D03*
Y1598100D02*
D03*
D182*
X633100Y1431000D02*
D03*
X556900D02*
D03*
D183*
X1784755Y596750D02*
D03*
Y628750D02*
D03*
X742739Y733000D02*
D03*
Y701000D02*
D03*
D184*
X729710Y1605000D02*
D03*
X798290D02*
D03*
X729710Y1422500D02*
D03*
X798290D02*
D03*
D185*
X1195768Y1501000D02*
D03*
X1213548D02*
D03*
X1213548Y1563920D02*
D03*
X1195768D02*
D03*
X1094128Y1563920D02*
D03*
X1076348D02*
D03*
X1094128Y1501000D02*
D03*
X1076348D02*
D03*
D186*
X877500Y1571390D02*
D03*
Y1553610D02*
D03*
X877500Y1391110D02*
D03*
Y1408890D02*
D03*
D187*
X1333663Y1143308D02*
D03*
X1323763Y1133408D02*
D03*
X1343663Y1133308D02*
D03*
X1333763Y1123408D02*
D03*
X1331263Y1095908D02*
D03*
X1341163Y1105808D02*
D03*
X1341263Y1085908D02*
D03*
X1351163Y1095808D02*
D03*
X1057950Y826950D02*
D03*
X1048050Y817050D02*
D03*
D188*
X1123763Y1143308D02*
D03*
X1133663Y1133408D02*
D03*
X1113763Y1133308D02*
D03*
X1123663Y1123408D02*
D03*
X1126163Y1095908D02*
D03*
X1116264Y1105807D02*
D03*
X1116163Y1085908D02*
D03*
X1106263Y1095808D02*
D03*
X1089200Y778300D02*
D03*
X1079300Y788200D02*
D03*
D189*
X1624000Y1325500D02*
D03*
Y1334500D02*
D03*
X1629000Y1325500D02*
D03*
X1639000D02*
D03*
X1634000D02*
D03*
Y1334500D02*
D03*
X1629000D02*
D03*
X1639000D02*
D03*
X1599500Y1325500D02*
D03*
Y1334500D02*
D03*
X1604500Y1325500D02*
D03*
X1614500D02*
D03*
X1609500D02*
D03*
Y1334500D02*
D03*
X1604500D02*
D03*
X1614500D02*
D03*
X1575000Y1325500D02*
D03*
Y1334500D02*
D03*
X1580000Y1325500D02*
D03*
X1590000D02*
D03*
X1585000D02*
D03*
Y1334500D02*
D03*
X1580000D02*
D03*
X1590000D02*
D03*
X1592500Y1223000D02*
D03*
Y1232000D02*
D03*
X1597500Y1223000D02*
D03*
X1607500D02*
D03*
X1602500D02*
D03*
Y1232000D02*
D03*
X1597500D02*
D03*
X1607500D02*
D03*
D190*
X1983000Y610500D02*
D03*
X2005000Y601000D02*
D03*
Y620000D02*
D03*
M02*
