M48
;Layer_Color=9474304
;FILE_FORMAT=4:4
METRIC,LZ
;TYPE=PLATED
T1F00S00C0.2000
T2F00S00C0.4000
T4F00S00C0.8890
T5F00S00C1.0000
T6F00S00C1.0160
T7F00S00C1.0668
T8F00S00C1.2700
T9F00S00C1.5000
T10F00S00C1.5748
T11F00S00C1.7000
T12F00S00C3.0000
;TYPE=NON_PLATED
T13F00S00C1.5000
T14F00S00C2.0320
T15F00S00C3.2512
%
T01
X0199775Y00599
X0201225Y00603
X0199775Y00618
X0198425Y0064
Y0065
Y0066
Y0067
Y0069
X0191425Y00705
X0189225Y0071
Y007
X018668Y007142
X018558
X018415Y00738
X01836
Y00747
X0183525Y0077275
X0180675Y007755
Y007665
Y0076
Y0075375
X0178525Y007575
Y007495
X017895Y0074375
Y00737
X0178525Y007295
Y007215
X0178525Y007135
X01775Y0071625
X01767
X01758Y0071633
X01749Y0071625
X01741
X0173
X0172325
X01716584Y00716212
X01717Y00732
X0172075Y0075
Y00765
X0172325Y0078075
X01716584Y00780788
X0173Y0078075
X01738Y0078075
X017895Y0078375
X0178525Y007735
Y007655
X0180675Y0072725
Y00721
X01807088Y00714785
X01814Y007175
X0180275Y0070625
X017955Y00699
X017765Y0069475
X017695
X0176
X0175325
X0174075Y0069475
X0172725Y0069475
X0172075
X01714Y0069475
X017182Y0068475
Y0067875
X0171895Y00672
Y00659
X0169695Y006625
Y006685
X0169545Y0067525
X016912Y0067895
Y0068395
X0169545Y0068825
X01664Y0070175
X016675Y007365
X0166325Y007402
Y007452
X016675Y007485
Y007535
X0166325Y007568
Y007618
X016675Y007655
X0169Y0076075
Y0075475
Y00745
Y00739
X0169925Y00747
Y00762
X0161275Y007195
X0161Y00715
X0158789Y00781108
X01623Y0060575
X01644Y0060625
X0166975Y0060925
Y0061575
Y0062225
Y0060275
X0174575Y006025
Y006075
X0174575Y006125
X017365Y0063525
X01739962Y00639286
X01744Y00643
X01784Y0067125
X01793Y0067133
X017965Y006265
X01818Y006235
Y006155
X018245Y00608
Y00603
X01806Y005985
X01801
X017885Y0058775
X01781023
X01932Y007466
X01943
X0158725Y00750602
Y00755896
X015835Y00760396
Y00746102
Y0074033
X0158725Y0073583
Y00730536
X015835Y00726036
X01545908
X01549658Y00730536
Y0073583
X01545908Y0074033
Y00746102
X01549658Y00750602
Y00755896
X01545908Y00760396
X01553Y00743
X01550298Y00781108
X01546598Y00788174
X0158419
X0151Y007275
X0151634Y00700452
X0151259Y00695952
Y00680498
X0151634Y00675998
X0151259Y00650526
X0151634Y00646026
X01491713Y00648358
Y00653358
Y00640858
Y00635858
X01492213Y00625858
Y00620858
X01492213Y00610858
X01492213Y00605858
X01442213Y00605858
Y00610858
X01442213Y00620858
X01442213Y00625858
X01427223Y00625858
Y00620858
X01427223Y00610858
X01427223Y00605858
X01464713Y00635858
Y00640858
Y00648358
Y00653358
X01455499Y00683
X01450499
X01440499
X01435499
X01422999Y006825
X01417999
X01407999Y006825
X01402999Y006825
X01382749Y00683
X01377749
X01367749
X01362749
X01350249Y006825
X01345249
X01335249Y006825
X01330249Y006825
X01336713Y00673358
Y00668358
Y00660858
Y00655858
X01337213Y00645858
Y00640858
X01337213Y00630858
X01337213Y00625858
X01287213Y00625858
Y00630858
X01287213Y00640858
X01287213Y00645858
X01272223Y00645858
Y00640858
X01272223Y00630858
X01272223Y00625858
X01214713Y00625858
X01214713Y00630858
X01214713Y00640858
Y00645858
X01214963Y00655858
Y00660858
Y00668358
Y00673358
X01211213Y00704108
X01206213
X01193713Y00703358
X01193713Y00724858
X01206213Y00731858
X01211213
X01221213
X01226213
X01226213Y00704108
X01221213
X01248713Y00703358
X01253713Y00703358
X01263713Y00703358
X01268713
X01281213Y00704858
X01286213
X01296213
X01301213
X01301213Y00731858
X01296213
X01286213
X01281213
X01268713Y00724858
X01263713
X01253713
X01248713
X01248713Y00753358
X01253713
X01263713
X01268713
X01304314Y00781038
X01308201Y00785265
X01304814Y00789288
X01294Y0079225
X0131125Y0077425
X01315272Y00778194
X01322491Y00771611
X01326027Y00768075
X01329414Y00764051
X0132575Y0076025
X01336485Y0075698
X01333Y0075325
X01343556Y00749909
X01345249Y007325
X01350249
X01335249
X01330249
X01330249Y00704
X01335249
X01345249
X01350249
X01362749Y00711
X01367749
X01377749
X01382749
X01402999Y00704
X01407999
X01417999
X01422999
X01435499Y00711
X01440499
X01450499
X01455499
X01422999Y007325
X01417999
X01407999
X01402999
X01400768Y00764018
X01397232Y00760482
X01394998Y00777037
X01398534Y00780573
X01402069Y00784109
X0141Y007725
X0143075Y007805
X01436943Y00786807
X01376821Y0079075
X01370821Y0078475
X01364821Y0077875
X01358821Y0077275
X01352821Y0076675
X01344605Y0078175
X01338605Y0078775
X01384391Y00766431
X01380856Y00762895
X0137732Y0075936
X01366714Y00748753
X01309713Y00673358
Y00668358
Y00660858
Y00655858
X01193713Y00753358
X01550182Y00650526
X01553932Y00646026
X01187963Y00655858
Y00660858
Y00668358
Y00673358
X01188713Y00703358
X01178713
X01173713Y00703358
X01167Y0069791
Y0069166
X01157499Y00704189
X01151Y0070418
X01144501Y00704189
X01144751Y0071248
X0115125Y0071249
X01157749Y0071248
X01157499Y00733145
X01151Y00733136
X01144501Y00733145
X0112425Y00738
X0112Y0074225
X01124439Y00759189
X01128681Y00763431
X01134783Y00767006
X01146147Y00769631
X01141854Y00774078
X01153218Y00776702
X01148925Y00781149
X01160289Y00783773
X01155996Y0078822
X0116736Y00790844
X01173713Y00753358
X01178713
X01188713
X01188713Y00724858
X01178713
X01173713
X01135Y0069791
Y0069166
X01149723Y00645858
Y00640858
X01149723Y00630858
X01149723Y00625858
X01164713Y00625858
Y00630858
X01164713Y00640858
X01164713Y00645858
X011Y0074425
X0109575Y0074
X01083757Y00740686
X0108025Y0074425
X01078571Y00774576
X01077674Y0078075
X010715Y00781647
X01070603Y00787821
X01066567Y00791857
X0103675Y0078775
X01038Y0078275
X0105225Y0077125
X0105825Y0076525
X01087Y00769863
X01090536Y00766328
X01094852Y00763572
X01098638Y00758362
X0101575Y007685
X0100175Y007685
X0099529Y007685
X0099075Y007545
X0099575Y007405
X0100175Y007405
X0101575Y007405
X00979Y00745548
X009715Y0074775
X009555Y007495
Y007545
X0095525Y007595
X0096567Y0077517
X0097583Y0077492
Y0073383
X0096567Y0073383
Y0070317
X0097583Y0070292
X0099529Y006965
X0100175Y006965
X0101575Y006965
X0101575Y006685
X0100175Y006685
X0099575Y006685
X0099075Y006825
X00979Y00673548
X009715Y0067575
X009555Y006775
Y006825
X0095525Y006875
X0096567Y0066183
X0097583Y0066183
X0091161Y00650526
X0090786Y00646026
Y00675998
X0091161Y00680498
X009125Y0069
X0090786Y00696064
X0091161Y00700564
X0090786Y00726036
X0091161Y00730536
X0090786Y00735942
X0091161Y00740442
X0090786Y00746102
X0091161Y00750602
X0090786Y00756008
X0091161Y00760508
X0090786Y00776074
X0091161Y00780574
X0090855Y00788174
X00870958
X00874018Y00780574
X00870268Y00776074
X00874018Y00760508
X00870268Y00756008
X00874018Y00750602
X00870268Y00746102
X00874018Y00740442
X00870268Y00735942
X00874018Y00730536
X00870268Y00726036
X00874018Y00650526
X00870268Y00646026
X0080325Y0064625
Y0065275
Y0065925
Y0063975
X007945Y0077701
X00788Y0077702
X00781501Y0077701
X007655Y0077575
X007605
X007505
X007455
X00746477Y0074175
X00739
X007265Y00731
X007215
X00703Y007265
Y007215
X007095Y00714
Y00706
X00731Y00703
X00733Y0064275
X00754Y0064325
X0078175Y00717
X0078175Y00722
Y00727
X00791Y0073975
X00787538Y00743786
X007835Y007475
X007655Y0080425
X007605
X007505
X007455
X00733Y0079725
X00728
X00718
X00713
X00713Y0082425
X00718
X00728
X00733
X007455Y0082575
X007505
X007605Y0082575
X007655Y0082575
X00781501Y00824489
X00788Y0082448
X0078271Y0088221
X0077271
Y0090295
X0078271
X007502Y0090463
Y0089193
Y0087923
Y0086653
X00749Y009585
X00744
X00759
X00764
X007765Y009655
X007815
X007915
X007915Y00987
X007815Y00987
X007765
X00764Y009855
X00759
X00749
X00744
X007765Y00937
X007815
X007915
X007218Y010774
Y011282
Y01179
X00671
Y011282
Y010774
X007965Y00987
X007965Y009655
X007965Y00937
X0083695Y00935982
X008407Y00940482
X0083695Y00945888
X008407Y00950388
X0083695Y00955794
X008407Y00960294
Y00930322
X0083695Y00925822
X008407Y00920416
X0083695Y00915916
X0084001Y0088825
Y00878344
Y00868184
Y00858278
X0080862Y0089193
Y0090463
X0087375Y00905736
Y00900736
X0091225Y0090125
X0090855Y00908316
Y00918222
Y00928128
Y00938288
X0090786Y00946
X0091161Y009505
X0090786Y00955906
X0091161Y00960406
X00965723Y00960358
Y00955358
X00965723Y00945358
X00965723Y00940358
X00980713Y00940358
Y00945358
X00980713Y00955358
X00980713Y00960358
X01003213Y00970358
Y00975358
Y00982858
Y00987858
X01030213Y00987858
Y00982858
Y00975358
Y00970358
X01030713Y00960358
Y00955358
X01030713Y00945358
X01030713Y00940358
X0101725Y00900251
X0101075Y00900241
X01004251Y00900251
X00988713Y0088012
X00983713
X00973713
X00968713
X00956213Y0088162
X00951213
X00941213Y0088162
X00936213Y0088162
X00936213Y0086012
X00941213
X00951213
X00956213
X00968713Y0085312
X00973713
X00983713
X00988713
X01004251Y00851757
X0101075Y00851767
X0101725Y00851757
X0102675Y00858036
Y00864286
X01034Y00847
X01037576Y00850495
X01043194Y00855807
X01062019Y00853759
X01066466Y00849466
X0106909Y0086083
X01073537Y00856537
X01076161Y00867901
X01080608Y00863608
X01083232Y00874972
X01087679Y00870679
X01090303Y00882043
X0109475Y0087775
X01115Y008875
X01129145Y00876355
X01133388Y00872112
X01142282Y008605
X01150358Y00855142
X01154601Y00850899
X01164501Y00841
X01168743Y00836757
X01185Y008525
X0117Y008675
X01165074Y00886441
X011525Y00885
X01172145Y00893513
X01179216Y00900584
X01186287Y00907655
X01179216Y00914726
X01165226Y00914647
X01158155Y00921718
X01165081Y0092886
X01172152Y00935931
Y00950074
X01179223Y00957145
X01179223Y00943002
X01186294Y00950074
Y00964216
X01172152
X01165081Y00957145
X01165081Y00971287
X0115801Y00964216
X0115801Y00978358
X01150939Y00985429
Y00971287
Y00957145
X01143868Y00950074
X01143868Y00964216
X01129726
X01136797Y00957145
Y00943002
X01129726Y00935931
X01129726Y00950074
X01122655Y00957145
Y00943002
Y0092886
X01115584Y00935931
X01102904Y009235
X01095126Y00931278
X01101441Y00950074
X01108513Y00957145
X01115584Y00964216
X01122655Y00971287
X01129726Y00978358
X01136797Y00985429
X01143868Y009925
X0115801
X01165081Y00985429
X01172152Y00978358
Y009925
X01179223Y00999571
X01165081Y00999571
X01172152Y01006642
X0115801Y01006642
X01165081Y01013713
X01179223
X01186294Y01006642
Y01020784
X01186287Y01034919
X01179216Y0104199
X01186287Y01049061
X01172145
X01165074Y01056132
X01179216Y01056132
X01172145Y01063203
X01186287
X01179216Y01070274
X01186287Y01077345
X01165074Y01070274
X01158002Y01063203
X01150939Y01041998
X01143868Y01034926
X01136797Y01027855
X01122655
X01129726Y01020784
X01115584
X01122655Y01013713
Y00999571
X01136797
X01129726Y01006642
X01143868Y01006642
X01136797Y01013713
X01150939Y01013713
X0115801Y01020784
X01150939Y01027855
X01143868Y01020784
X0115801Y01034926
X01129726Y01034926
X01108513Y01013713
X01101442Y01006642
X01115584
X01108513Y00999571
Y00985429
X01115584Y00978358
X01115584Y009925
X01101441
X0109437Y00985429
Y00971287
X01108513
X01101442Y00978358
X01087299Y00964216
X01073157Y00978358
X01080228Y00985429
X01044Y00988
X01079316Y00915469
X01087094Y00907691
X01129726Y00921789
X01143868
X01150939Y0092886
X01143868Y00935931
X01136797Y0092886
X0115801Y00935931
X01165081Y00943002
X0115801Y00950074
X01150939Y00943002
Y00914718
X01186287Y00921797
Y00893513
X0118825Y00818
X01170138Y00802362
X01174431Y00797915
X01163067Y00795291
X01062251Y00794612
X01058716Y00798147
X01055961Y00802463
X0105075Y0080625
X0103675Y008075
X010325Y0080325
X0103975Y008195
X0104355Y008232
X0103525Y00828
X01031Y0083225
X0104925Y0083225
X01055906Y008355
X01059395Y00842395
X00956213Y0083162
X00951213
X00941213Y0083162
X00936213
X0090855Y00828306
Y00838212
Y00848118
Y00858278
Y00868184
X0091225Y00881184
X0090855Y0088825
Y00818146
Y0080824
Y00798334
X00870958
Y0080824
Y00818146
X007945Y00824489
X00851Y011485
X01087019Y01117019
X01083484Y01113484
X0109409Y0112409
X01097626Y01127626
X01107525Y01135404
X01111061Y01138939
X01118132Y0114601
X01121667Y01149546
X01140759Y01130454
X01137224Y01126918
X01130153Y01119847
X01126617Y01116312
X01112828Y01112423
X01109293Y01108887
X01102222Y01101816
X01098686Y01098281
X01132981Y0109227
X01129445Y01088735
X01122374Y01081664
X01118839Y01078128
X01150939Y00999571
X01179223Y00985429
X01186294Y009925
X01186294Y00978358
X01179223Y00971287
X0117525Y0118825
X0118975Y0118775
X0114925Y0118825
X0110675
X0121075
X012075Y01165
X011965Y011495
X01228713Y01133914
X01235784Y01112701
X01228713Y0110563
X01221642Y01098559
X01214571Y0110563
X01221642Y01112701
X012075Y01098558
X012075Y01084416
X01200429Y01077345
Y01091487
X01193358Y01098559
X01193358Y01070274
X012075
X01214571Y01077345
Y01063203
X01200429Y01063203
X012075Y01056132
X01221642
X01235784
X01228713Y01063203
X01235784Y01070274
X01249926Y01070274
X01256998Y01077345
X0127114
X0127114Y01063203
X01278211Y01056132
X01264069
X01264069Y0104199
X01256998Y01049061
X01249926Y01056132
X01242855Y01049061
X01235784Y0104199
X01221642
X01214571Y01049061
X01200429
X01193358Y01056132
X01193358Y0104199
X01200429Y01034919
X012075Y01027848
X01200429Y01020777
X01214571
X012075Y01013706
X01221642
X01228713Y01006635
X01221642Y00999564
X01214571Y01006635
X01193365Y00999571
X01200436Y009925
X01207507Y00985429
X01214579Y00978358
X01207507Y00971287
X01200436Y00964216
X01200436Y00978358
X01193365Y00971287
Y00957145
X012075Y0094301
X01200429Y00935939
X01214571Y00935939
X012075Y00928868
X01193358
Y00914726
X01200429Y00921797
Y00907655
X01193358Y00900584
X01200429Y00893513
X01193358Y00886441
X01200429Y0087937
X01214571
X01221642Y00872299
X01228713Y00865228
X01235784Y00858157
X01235784Y00872299
X01242855Y00865228
Y0087937
X01249926Y00872299
X01249926Y00886441
X01256998Y00893513
X01242855Y00893513
X01249926Y00900584
Y00914726
X01256998Y00921797
X01249926Y00928868
X01242855Y00921797
Y00935939
X01235784Y00928868
X01235784Y0094301
X01228713Y00935939
X01228713Y00950081
X01221642Y0094301
Y00957152
X01214571Y00950081
X01235784Y00957152
X01242855Y00950081
X01249926Y0094301
X01256998Y00935939
X01264069Y00928868
X0127114Y00921797
X01278211Y00914726
X01285282Y00907655
X01278211Y00900584
X0127114Y00907655
X01264069Y00900584
X0127114Y00893513
X01278132Y00886289
X01285282Y0087937
X01285203Y0089336
X01271061Y00879218
X01303Y0087225
X0131825Y0088025
X01328035Y00872285
X01324499Y00868749
X01313893Y00858143
X01310357Y00854607
X01299751Y00844001
X01296215Y00840465
X01285609Y00829858
X0127475Y0083625
X01242855Y00836944
X01249926Y00844015
X01242855Y00851086
X01228713
X01221642Y00858157
X01221642Y00844015
X01228713Y00836944
X01235784Y00829873
X012075Y00858157
X01200429Y00851086
X01200429Y00865228
X01193358Y00872299
X012075Y00900584
X01214571Y00907655
X01221642Y00900584
X01228713Y00893513
X01221794Y00886363
X01235784Y00886441
Y00900584
X01228713Y00907655
X01242855
X01235784Y00914726
X01228713Y00921797
X01221642Y00914726
X01221642Y00928868
X01214571Y00921797
X012075Y00914726
X01256998Y00907655
X01264069Y00914726
X01271284Y00935868
X01285274Y00935931
X01299416
X01306487Y00943002
X01313559Y00935931
X01320629Y0092886
X01334772
X01327701Y00935931
X01341843
X01348914Y00943002
X01341843Y00950074
X01334772Y00943002
Y00957145
X01327701Y00964216
X0132063Y00957145
X01327701Y00950074
X01313559Y00950074
X01320629Y00943002
X01313559Y00964216
X01320629Y00971287
X01313559Y00978358
X01306487Y00985429
Y00971287
X01299416Y00978358
X01292345Y00985429
X01285274Y00978358
X01278203Y00985429
X01271132Y009925
X01264061Y00999571
Y00985429
X0125699Y00978358
X01271132Y00978358
X01264061Y00971287
X01249919
Y00985429
X0125699Y009925
X01242855Y01006635
X01235784Y00999564
X01228713Y00992492
X01242848Y00978358
X01228713Y00964223
X0125699Y00964216
X01271132
X01278203Y00971287
X01271132Y00950074
X01264061Y00957145
X01292345
X01285274Y00950074
X01299416Y00950074
X01292345Y00943002
Y0092886
X01299416Y00921789
X01306487Y00914718
X01320629
X01327701Y00921789
X01313559Y00907647
X01345713Y00889963
X01342177Y00886427
X01338642Y00882891
X0135875Y00872
X01365558Y00892119
X013695Y00896
X013765Y00889
X01372629Y00885048
X013797Y00877977
X013835Y008815
X01386771Y00870906
X01390306Y00867371
X01394706Y00871642
X01397377Y008603
X01401Y0086375
X01404449Y00853228
X01407984Y00849693
X0141152Y00846157
X01415055Y00842622
X01426162Y00831515
X01431605Y00815966
X01426818Y00808857
X01423282Y00805322
X01412676Y00794715
X0140875Y008225
X01404821Y0081875
X01398821Y00825966
X01388821Y00835966
Y0080275
X01394821Y0080875
X01382821Y0079675
X01322605Y0080375
X013035Y0081675
X01290523Y00802942
X01287Y00799
X01297594Y00795871
X0128775Y0085675
X01371821Y00852966
X01441286Y00847535
X0143775Y00844
X01435Y00909
X0143
X01445
X0145
X014625Y00916
X014675
X014775
X014825
X014825Y009375
X014775Y009375
X014675Y009375
X014625
X0145Y00936
X01445
X01435
X0143
X014625Y008875
X014675
X014775
X014825
X01505Y008975
X0151565Y0088825
Y00878344
Y00848118
Y00838212
Y00828306
X01516324Y0081879
X01546598Y0080824
X01550298Y00801174
X0158419Y0080824
Y00818146
X01553242Y00858278
Y00868184
Y00878344
Y0088825
X01553932Y00916028
X01550182Y00920528
X01553932Y00925934
X01550182Y00930434
X01545908Y00946
X01549658Y009505
X01545908Y00955906
X01549658Y00960406
X0158725
X015835Y00955906
X0158725Y009505
X015835Y00946
X0158725Y00940594
X015835Y00936094
X01567999Y0111933
X01557999
Y0114067
X01567999
X015675Y01182
X0155575Y0118325
X015475Y01182
X015425
X0152925Y0118325
X0150925
X015055Y01177
X0148925Y0118325
X01477537Y01133537
X0144825Y01130143
X01444715Y01133679
X0144825Y0116275
X0139325Y01185143
X01389715Y01188679
X01370407Y01117019
X01373943Y01113484
X01363336Y0112409
X01359801Y01127626
X01349901Y01135404
X01346366Y01138939
X01339295Y0114601
X01335759Y01149546
X01316667Y01130454
X01320203Y01126918
X01327274Y01119847
X01330809Y01116312
X01344598Y01112423
X01348133Y01108887
X01355205Y01101816
X0135874Y01098281
X01324446Y0109227
X01327981Y01088735
X01335052Y01081664
X01338588Y01078128
X01334772Y01027855
X01327701Y01020784
X01313559
Y01034926
X01306487Y01027855
X01299416Y01034926
X01285419Y01034855
X01292345Y01027855
X01292345Y01013713
X01306487Y01013713
X01299416Y01006642
X01278203Y00999571
X01278203Y01013713
X01256998Y01020777
X01264069Y01027848
X01249926Y01013706
X01235784
X01228713Y01020777
X01242855Y01020777
X01235784Y01027848
X01214571Y01034919
X012075Y0104199
X01221642Y01084416
X01228713Y01091487
X01235784Y01084416
X01242855Y01091487
X01235784Y01098558
X01249926
X01256998Y01091487
X01264069Y01098558
X01249926Y01084416
X01242855Y01077345
X01256998Y01063203
X01299424
X0132063Y01013713
X01334772Y00999571
X01341843Y009925
X01348914Y00999571
X01348914Y00985429
X01355985Y00978358
X01363056Y00971287
Y00985429
X01370127Y009925
X01377198Y00985429
X01384269Y00978358
X01370127
X01377198Y00971287
X01370127Y00964216
X01355985
X01363056Y00957145
X01334772Y00971287
X01334772Y00985429
X01327701Y00978358
Y009925
X0132063Y00985429
X01313559Y009925
X01299416Y00964216
X01306487Y00957145
X01341843Y01020784
X01193365Y00985429
X012475Y0118
X0125325Y0118825
X0159425Y0118325
X0160425
X0162425
X01635Y0118325
X0163983Y01183308
X0164925Y0118325
X01706271Y01185
X01706261Y01178501
X01705Y011625
Y011575
Y011475
Y011425
X017065Y0113
Y01125
Y01115
Y0111
X017335Y0111
Y01115
Y01125
Y0113
X017265Y011425
Y011475
Y011575
Y011625
X01755Y011625
Y011575
Y011475
Y011425
X01753739Y01178501
X01753729Y01185
X01674499Y01104991
X01667999Y01105001
X016615Y01104991
X01641999
X01635499Y01105001
X01629Y01104991
X016325Y009375
X016375
X016225
X016175
X016175Y00909
X016225
X016325
X016375
X0165Y00916
X01655
X01665
X0167
X0167Y00889
X01665
X01655
X0165
X016375Y008875
X016325
X016225Y008875
X016175Y008875
Y008575
X016225Y008575
X016325Y008575
X016375
X0165Y00856
X01655
X01665
X0167
X0167Y00829
X01665
X01655
X0165
X016375Y00836
X016325
X016225
X016175
X016175Y008075
X016225
X016325
X016375
X0158789Y00801174
X01714Y0080225
X0172075
X0172725
X017385
X01759
X0176575
X0177225
X017885
X01797Y008495
X01797Y008545
X01797Y008645
Y008695
X017965Y008795
Y008845
Y00892
Y00897
X017695Y00897
Y00892
Y008845
Y008795
X01747Y008695
X01747Y008645
X01747Y008545
Y008495
X0173201Y008495
X0173201Y008545
X0173201Y008645
Y008695
X018675Y008785
X018725
X018825
X018875
X019Y0088
X01905
X01915Y0088
X0192Y0088
X0192Y008585
X01915
X01905
X019
X018875Y008515
X018825
X018725
X018675
X019Y0083
X01905
X01915
X0192
X019475Y0087425
X01963396Y00867396
X01976604
Y00882792
X01963396
X01965Y010535
X0196675Y01059
X01965Y0106475
X019685Y01069
X019725Y0105025
X019505Y0106
X0198825Y010525
X019935Y0104825
X0199875
X0199825Y0089008
X0198633Y0087992
X02002823Y01555548
Y01560548
X019286Y015826
X019211
X019141
X01758548Y01560097
X01753548
X0162775Y0148625
X01648739Y01418999
X01648729Y014125
X01648739Y01406001
X0163575Y0137175
X0163425Y0134725
X016275Y01346
X016225
X016175
X016125
X016075
X0159925Y0134725
X015925Y01346
X015875
X0159Y0131983
X015995
X016045
X016095
X016145
X01624
X01629
X01634
X01639
X0165975Y0131825
Y01324
Y0133825
X016525Y01346
X016425
X0160075Y0137175
X01601261Y01406001
X01601271Y014125
X01601261Y01418999
X016025Y0123767
X015975
X015925
X016075
X01625Y0123825
X01635
X01645
X0165975Y01234
Y0122825
Y0121825
X016575Y0120375
X0165125Y01209
X0164075Y0120775
X0163425
X0162575
X016175Y01209
X016125
X0160575Y0120775
X0159575
X015875Y01209
X0168425Y0121675
Y0122675
Y01251
Y0125675
X01695Y012575
Y012875
X0168425Y0128675
Y01281
Y01294
Y01311
Y0131675
X01695Y013175
X0165975Y0128825
Y01264
Y0125825
X01706261Y01191499
X01753739
X01787468Y01309177
X01792468
X0181525Y0133575
X018145Y0135075
X0181525Y0136425
X018355Y0135075
X0189433Y0135
X0191567
X0191475Y0136425
Y0133575
X01915823Y01302548
Y01297548
X01885823Y01280048
Y01275048
Y01420548
Y01425548
X01915823Y01402548
Y01397548
X0178425Y01385
X0158075Y0137175
X0156075
X0155075
X0153075
X0151075
X0150925Y0134725
X014975Y01346
X014925
X014875
X0147925Y0134725
X0146925
X0146025Y01343
X01460321Y01332565
X0146025Y0132175
X0143575Y0132325
X0142875Y01323
X014345Y01335
Y0134
X0143575Y0129325
X0142875
X0143575Y0126825
Y0124325
X014345Y01235
X0143575Y0121825
X0146025Y0121675
X01460217Y012325
X0146025Y0124175
Y0126675
Y0129175
X0148775Y0131925
X0149775
X0152925Y0134725
X0154925
X0155925
X015675Y01346
X015725
X0157925Y0134725
X0158Y0131983
X01585
X015825Y01209
X0155425Y0120775
X01545075Y01207809
X0153075Y0120775
X0151075
X0149075
X01382643Y0119575
X01386179Y01192214
X0141375Y0127525
X0139325Y01305143
X01389715Y01308679
X01386179Y01312214
X01382643Y0131575
X0129975Y0131975
Y0130025
Y0129375
Y0128725
X0129925Y0127925
X0127725Y0127575
X0127675Y0126775
Y0126125
Y0125475
Y0124825
Y0124175
X0124975Y0121025
X0121425
X012125Y01345472
X0120275Y0134425
X0119625
X0122225
X0122875
X0124975Y0134475
X0125325Y0136675
X0121075
X0127675Y0133925
Y0133275
Y0132625
X0125392Y01464
Y0146925
Y0147425
X0124492Y014845
X0123967
X01247876Y01490086
X0121867Y0148992
X0121292
X0120717
X01199968Y01519
X01194968
X0120717Y01575
X0121292
X0121867
X0123967Y015805
X0124492
X01247876Y01574914
X0132675Y015535
X0133175
X0134175
X0134675
X0135925Y01555
X0136425
X0137425
X0137925
X0137925Y015335
X0137425
X0136425
X0135925
X0134675Y015265
X0134175
X0133175
X0132675
X0135925Y01505
X0136425
X0137425
X0137925
X0138025Y0147
X0137525
X0136525
X0136025
X0134775Y014685
X0134275
X0133275
X0132775
X0132775Y014415
X0133275
X0134275
X0134775
X0136025Y014485
X0136525
X0137525
X0138025
X0138025Y0142
X0137525
X0136525
X0136025
X0140525Y014415
X0141025
X0142025
X0142525
X0143775Y014485
X0144275
X0145275
X0145775
X0145775Y0147
X0145275
X0144275
X0143775
X0142525Y014685
X0142025
X0141025
X0140525
X014825Y014685
X014875
X014975
X015025
X01515Y0147
X0152
X0153
X01535
X01535Y014485
X0153
X0152
X01515
X015025Y014415
X014975
X014875
X014825
X0145775Y0142
X0145275
X0144275
X0143775
X01515Y0142
X0152
X0153
X01535
X0148075Y0137175
X0147075
X014635Y0157825
X0148667Y015825
X0148675Y015735
X015085Y0157825
X0123867Y01465
Y014595
X011345Y01464
Y0146925
Y0147425
X011255Y014845
X0112025
X01128456Y01490086
X0109925Y0148992
X010935
X0108775
X01080548Y01519
X01075548
X0108775Y01575
X010935
X0109925
X0112025Y015805
X011255
X01128456Y01574914
X0111925Y01465
Y014595
X0110675Y0136675
X0111025Y0134475
X0112475Y0134425
X0113125
X0113775
X0114575Y0134475
X0115725Y0134425
X0116375
X0117025
X0118Y01345472
X0118175Y0136675
X0114925
X0108325Y0133275
Y0132625
Y0131975
Y0131325
Y0130675
Y0130025
X0108275Y0127925
X0108325Y0125475
Y0124825
Y0124175
Y0123525
Y0122875
Y0122225
Y0121575
X0111025Y0121025
X0114575
X0117175
X0106075Y0127575
X0106025Y0133925
X009785Y0139925
Y014045
Y0140975
X009775Y0142825
X00972
X009665
X00921037Y01425048
Y01420048
X00899391Y01419952
Y01424952
X0086725Y014135
Y014085
X0086725Y014035
X0086875Y01378872
X0080525Y0140575
X0079825
X008135Y014155
Y014225
Y014295
X00796Y0135325
Y01347
Y01532
Y0153825
X0086875Y01541372
X0086725Y01566
X0086725Y01571
Y01576
X00899391Y01582452
Y01587452
X00921037Y01582548
X00951678Y01554072
X009785Y0156175
Y01567
Y0157225
X00951678Y01391572
X00954624Y01249116
Y01236416
Y01223716
Y01211016
X00903334
Y01223716
Y01236416
Y01249116
X0099Y0123458
X00793Y01307
X00793Y0132
Y013285
X007845Y0135975
X00777
X0078Y0137
X00787
X00773
X00727
X0072
X00713
X00717Y0135975
X007245
X00736Y0135325
Y01347
X0076892Y01305
X0079125Y0140575
X0074492Y014155
Y014225
Y014295
X007145Y014295
Y014225
Y014155
X0076892Y0149
X00793Y01492
X00793Y01505
Y015135
X007845Y0154475
X00777
X0078Y01555
X00787
X00773
X00727
X0072
X00713
X00717Y0154475
X007245
X00736Y0153825
Y01532
X0058125Y0154375
Y0154875
X0056375Y0145375
X0055675
X005495
X0057225Y014385
Y01431
Y01424
X0056375Y0140825
X0055675
X005495
X0056125Y01386
Y0138
X00578876
Y01386
X0063825Y01289
X0063825Y01278747
Y01268747
X007145Y01598
Y01605
Y01612
X0074492Y01612
Y01605
Y01598
X0079125Y0158825
X0079825
X0080525
X008135Y01598
Y01605
Y01612
X00921037Y01587548
X009665Y0159075
X00972
X009775
X0111925Y016
Y016055
X011345Y01601
Y0159575
Y0159075
X0123867Y016
Y016055
X0125392Y01601
Y0159575
Y0159075
X014635Y0163675
X015085
X0189835Y0160535
Y015981
Y015911
X0194385
Y015981
Y0160535
T02
X017315Y0072611
Y0074411
Y0076211
X017425Y0075311
Y0073511
X017535Y0072611
Y0074411
Y0076211
X017645Y0075311
Y0073511
X0177539Y0072611
Y0074411
Y0076211
X017645Y00772
X017425
X01356213Y00791427
X0140725Y0063925
X0141825
X01397712Y00626608
Y00615858
Y00605108
X0140725Y00592466
X0141825
X0126325Y00612466
X0125225
X01242712Y00625108
Y00635858
Y00646608
X0125225Y0065925
X0126325
X0114075Y0065925
X0112975
X01120212Y00646608
Y00635858
Y00625108
X0112975Y00612466
X0114075
X01110282Y00783245
X01098968Y00794559
Y008186
X01086947Y00829207
X01075633Y00817893
X01086947Y0080658
X01110989
X01122303Y00795266
X0112301Y008186
X01134323Y00807287
X01135031Y00830621
X01146344Y00819308
X01110989Y00830621
X01099675Y00841935
X01111696Y00853956
X0112301Y00842642
X0095675Y00926966
X0094575
X00936212Y00939608
Y00950358
Y00961108
X0094575Y0097375
X0095675
X01356213Y00848349
X01356213Y00833854
X01370179Y00834384
Y00819888
X01384674
X01370709Y00805923
X01356213
Y00819358
X01342248Y00819888
X01341718Y00805923
X01327752Y00819888
X01342248Y00834384
X01712037Y00836108
X01723037
X01702499Y0084875
Y008595
Y0087025
X01712037Y00882892
X01723037
X01244788Y0152361
Y015325
Y0154139
X01234628
Y015325
Y0152361
X01224468
Y015325
Y0154139
X01214308
Y015325
Y0152361
X01125368Y0152361
Y015325
Y0154139
X01115208Y0154139
X01115208Y015325
X01115208Y0152361
X01105048
X01105048Y015325
X01105048Y0154139
X01094888Y0154139
Y015325
Y0152361
X00916214Y01552
Y015625
Y01573
X00904214
Y015625
Y01552
Y014105
Y014
Y013895
X00916214
Y014
Y014105
X0075937Y0133599
X0075048
X0074159
Y0132329
X0075048
X0075937
Y0150829
X0075048
X0074159
Y0152099
X0075048
X0075937
T04
X018522Y0128904
Y0130936
Y0132968
X018776Y0131952
Y012992
Y0133984
Y0136016
Y0138048
Y014008
X018522Y0139064
Y0137032
Y0141096
T05
X020297Y006019
Y006273
X020551
Y006019
Y006527
Y006781
Y007035
Y007289
X020297
Y007035
Y006781
Y006527
X00592Y01235647
Y01261047
Y01286447
Y01311847
T06
X018268Y0128904
Y0131444
Y0138556
Y0141096
T07
X015953Y015971
X016207
X016461
X016715
X016969
X017223
X017477
Y016225
X017223
X016969
X016715
X016461
X016207
X015953
T08
X0205Y00885
Y0106
T09
X0056Y015275
Y0157
X00615
Y015275
T10
X0206175Y01269355
Y01430645
T11
X020246Y008596
X020754
Y009104
X020246
Y010346
X020754
Y010854
X020246
T12
X01884946Y00538746
X013264Y00539
X010978
X00539
Y011613
X009962Y010597
X01428
X018852Y011613
X0053848Y0166243
X018852
T13
X0154992Y00631202
X0087428
Y00975118
X0154992
T14
X02076Y01558
T15
X0203Y012865
Y014135
M30
